<?xml version="1.0" encoding="UTF-8" standalone="no"?>
<!-- Created with Inkscape (http://www.inkscape.org/) -->

<svg
   version="1.1"
   id="svg1"
   width="440"
   height="320"
   viewBox="50 70 440 320"
   sodipodi:docname="page2_17607954740465916145.pdf"
   xmlns:inkscape="http://www.inkscape.org/namespaces/inkscape"
   xmlns:sodipodi="http://sodipodi.sourceforge.net/DTD/sodipodi-0.dtd"
   xmlns="http://www.w3.org/2000/svg"
   xmlns:svg="http://www.w3.org/2000/svg">
  <defs
     id="defs1">
    <clipPath
       clipPathUnits="userSpaceOnUse"
       id="clipPath6">
      <path
         d="m 774.66345,322.46164 296.77835,7.57471 -6.5382,256.16653 -296.77829,-7.57471 z"
         transform="matrix(0.42656998,-0.01088738,0.01088738,0.42656998,-334.45895,-129.42797)"
         id="path6" />
    </clipPath>
    <clipPath
       clipPathUnits="userSpaceOnUse"
       id="clipPath7">
      <path
         d="m 774.66345,322.46164 296.77835,7.57471 -6.5382,256.16653 -296.77829,-7.57471 z"
         transform="matrix(0.42656998,-0.01088738,0.01088738,0.42656998,-334.45895,-129.42797)"
         id="path7" />
    </clipPath>
    <clipPath
       clipPathUnits="userSpaceOnUse"
       id="clipPath8">
      <path
         d="m 774.66345,322.46164 296.77835,7.57471 -6.5382,256.16653 -296.77829,-7.57471 z"
         transform="matrix(0.42656998,-0.01088738,0.01088738,0.42656998,-334.45895,-129.42797)"
         id="path8" />
    </clipPath>
    <clipPath
       clipPathUnits="userSpaceOnUse"
       id="clipPath9">
      <path
         d="m 774.66345,322.46164 296.77835,7.57471 -6.5382,256.16653 -296.77829,-7.57471 z"
         transform="matrix(0.42656998,-0.01088738,0.01088738,0.42656998,-334.45895,-129.42797)"
         id="path9" />
    </clipPath>
    <clipPath
       clipPathUnits="userSpaceOnUse"
       id="clipPath10">
      <path
         d="m 774.66345,322.46164 296.77835,7.57471 -6.5382,256.16653 -296.77829,-7.57471 z"
         transform="matrix(0.42656998,-0.01088738,0.01088738,0.42656998,-334.45895,-129.42797)"
         id="path10" />
    </clipPath>
    <clipPath
       clipPathUnits="userSpaceOnUse"
       id="clipPath11">
      <path
         d="m 774.66345,322.46164 296.77835,7.57471 -6.5382,256.16653 -296.77829,-7.57471 z"
         transform="matrix(0.42656998,-0.01088738,0.01088738,0.42656998,-334.45895,-129.42797)"
         id="path11" />
    </clipPath>
    <clipPath
       clipPathUnits="userSpaceOnUse"
       id="clipPath12">
      <path
         d="M 0,0 H 1562.5 V 1562.5 H 0 Z"
         transform="scale(0.31999999)"
         id="path12" />
    </clipPath>
    <clipPath
       clipPathUnits="userSpaceOnUse"
       id="clipPath19">
      <path
         d="M 0,0 H 1562.5 V 1562.5 H 0 Z"
         transform="scale(0.31999999)"
         id="path19" />
    </clipPath>
    <clipPath
       clipPathUnits="userSpaceOnUse"
       id="clipPath20">
      <path
         d="M 0,0 H 1562.5 V 1562.5 H 0 Z"
         transform="scale(0.31999999)"
         clip-rule="evenodd"
         id="path20" />
    </clipPath>
    <clipPath
       clipPathUnits="userSpaceOnUse"
       id="clipPath21">
      <path
         d="M 0,0 H 966 V 348 H 0 Z"
         transform="matrix(0.27350169,0,0,0.27350169,-0.11301197,-76.003141)"
         id="path21" />
    </clipPath>
    <clipPath
       clipPathUnits="userSpaceOnUse"
       id="clipPath22">
      <path
         d="M 0,0 H 1254 V 348 H 0 Z"
         transform="matrix(0.31999999,0,0,0.31999999,57.279998,257.91999)"
         id="path22" />
    </clipPath>
    <clipPath
       clipPathUnits="userSpaceOnUse"
       id="clipPath23">
      <path
         d="M 0,0 H 359 V 348 H 0 Z"
         transform="matrix(0.27350169,0,0,0.27350169,-0.12336151,-76.003141)"
         id="path23" />
    </clipPath>
    <clipPath
       clipPathUnits="userSpaceOnUse"
       id="clipPath24">
      <path
         d="M 0,0 H 1254 V 348 H 0 Z"
         transform="matrix(0.31999999,0,0,0.31999999,57.279998,257.91999)"
         id="path24" />
    </clipPath>
    <clipPath
       clipPathUnits="userSpaceOnUse"
       id="clipPath25">
      <path
         d="M 0,0 H 1254 V 348 H 0 Z"
         transform="matrix(0,-0.28715314,0.28715314,0,-21.756231,226.15646)"
         id="path25" />
    </clipPath>
    <clipPath
       clipPathUnits="userSpaceOnUse"
       id="clipPath26">
      <path
         d="M 0,0 H 1254 V 348 H 0 Z"
         transform="matrix(-0.19265053,-0.21293827,0.21293827,-0.19265053,153.78331,211.65201)"
         id="path26" />
    </clipPath>
    <clipPath
       clipPathUnits="userSpaceOnUse"
       id="clipPath27">
      <path
         d="M 0,0 H 1254 V 348 H 0 Z"
         transform="matrix(-0.18001761,0.2237199,-0.2237199,-0.18001761,222.90375,-149.32204)"
         id="path27" />
    </clipPath>
    <clipPath
       clipPathUnits="userSpaceOnUse"
       id="clipPath28">
      <path
         d="M 0,0 H 50 V 26 H 0 Z"
         transform="matrix(5.3880288,5.3880288,-5.3880288,5.3880288,-2.7614046,-4.9732493)"
         id="path28" />
    </clipPath>
    <clipPath
       clipPathUnits="userSpaceOnUse"
       id="clipPath29">
      <path
         d="M 928.28638,76.261101 904.52997,100.01746 879.71777,75.205261 Z"
         transform="matrix(0.31999999,0,0,0.31999999,57.279998,257.91999)"
         id="path29" />
    </clipPath>
    <clipPath
       clipPathUnits="userSpaceOnUse"
       id="clipPath30">
      <path
         d="M 0,0 H 49 V 26 H 0 Z"
         transform="matrix(-5.3880288,-5.3880288,5.3880288,-5.3880288,124.24879,399.75401)"
         id="path30" />
    </clipPath>
    <clipPath
       clipPathUnits="userSpaceOnUse"
       id="clipPath31">
      <path
         d="m 890.05798,278.51056 23.75641,-23.75636 24.8122,24.81221 z"
         transform="matrix(0.31999999,0,0,0.31999999,57.279998,257.91999)"
         id="path31" />
    </clipPath>
    <clipPath
       clipPathUnits="userSpaceOnUse"
       id="clipPath32">
      <path
         d="M 0,0 H 268 V 348 H 0 Z"
         transform="matrix(0.27350169,0,0,0.27350169,-0.21087271,-76.003141)"
         id="path32" />
    </clipPath>
    <clipPath
       clipPathUnits="userSpaceOnUse"
       id="clipPath33">
      <path
         d="M 0,0 H 1254 V 348 H 0 Z"
         transform="matrix(0.31999999,0,0,0.31999999,57.279998,257.91999)"
         id="path33" />
    </clipPath>
    <clipPath
       clipPathUnits="userSpaceOnUse"
       id="clipPath44">
      <path
         d="M 0,0 H 1562.5 V 1562.5 H 0 Z"
         transform="scale(0.31999999)"
         clip-rule="evenodd"
         id="path44" />
    </clipPath>
    <clipPath
       clipPathUnits="userSpaceOnUse"
       id="clipPath45">
      <path
         d="m 751.13727,515.16302 299.79793,-11.00881 12.1556,331.02688 -299.79795,11.00885 z"
         transform="matrix(1.1344164,0.04165669,-0.04165669,1.1344164,-949.56826,-673.40226)"
         id="path45" />
    </clipPath>
    <clipPath
       clipPathUnits="userSpaceOnUse"
       id="clipPath46">
      <path
         d="m 751.13727,515.16302 299.79793,-11.00881 12.1556,331.02688 -299.79795,11.00885 z"
         transform="scale(0.31999999)"
         id="path46" />
    </clipPath>
    <clipPath
       clipPathUnits="userSpaceOnUse"
       id="clipPath47">
      <path
         d="M 0,0 H 1562.5 V 1562.5 H 0 Z"
         transform="scale(0.31999999)"
         id="path47" />
    </clipPath>
    <clipPath
       clipPathUnits="userSpaceOnUse"
       id="clipPath50">
      <path
         d="M 0,0 H 1562.5 V 1562.5 H 0 Z"
         transform="scale(0.31999999)"
         id="path50" />
    </clipPath>
    <clipPath
       clipPathUnits="userSpaceOnUse"
       id="clipPath52">
      <path
         d="M 0,0 H 1562.5 V 1562.5 H 0 Z"
         transform="matrix(1.1344164,0.04165669,-0.04165669,1.1344164,-1050.4354,-839.90232)"
         id="path52" />
    </clipPath>
    <clipPath
       clipPathUnits="userSpaceOnUse"
       id="clipPath54">
      <path
         d="M 714.22437,504.17142 H 1098.5994 V 926.04639 H 714.22437 Z"
         transform="matrix(11.291253,0,0,-11.291253,-8064.4882,10436.481)"
         clip-rule="evenodd"
         id="path54" />
    </clipPath>
    <clipPath
       clipPathUnits="userSpaceOnUse"
       id="clipPath56">
      <path
         d="M 714.22437,504.17142 H 1098.5994 V 926.04639 H 714.22437 Z"
         transform="matrix(11.291253,0,0,-11.291253,-8064.4882,10436.481)"
         clip-rule="evenodd"
         id="path56" />
    </clipPath>
  </defs>
  <sodipodi:namedview
     id="namedview1"
     pagecolor="#ffffff"
     bordercolor="#000000"
     borderopacity="0.25"
     inkscape:showpageshadow="2"
     inkscape:pageopacity="0.0"
     inkscape:pagecheckerboard="0"
     inkscape:deskcolor="#d1d1d1">
    <inkscape:page
       x="0"
       y="0"
       inkscape:label="1"
       id="page1"
       width="500"
       height="500"
       margin="0"
       bleed="0" />
  </sodipodi:namedview>
  <g
     id="g1"
     inkscape:groupmode="layer"
     inkscape:label="1">

    <g
       id="g4"
       clip-path="url(#clipPath20)">
      <g
         id="g5">
        <path
           id="path5"
           d="M 49.267525,-45.374307 H 74.408151 V 6.9461794e-4 H 3.892523 V -90.749309 H 49.267525 Z M 81.66987,-90.874309 h 75.1875 v 30.593751 H 138.0605 v 3.890625 h 18.79687 v 21.781251 H 138.0605 v 3.890625 h 18.79687 V -0.12430539 H 81.66987 Z M 156.98237,6.9461794e-4 214.27925,-97.093059 271.57613,6.9461794e-4 Z M 316.8105,0.12569462 h -45.375 V -90.749309 h 45.375 c 6.21876,0 12.07032,1.1875 17.56251,3.5625 5.48828,2.375 10.32812,5.640625 14.51562,9.796875 4.19531,4.148438 7.46094,8.984376 9.79688,14.515626 2.33203,5.53125 3.5,11.40625 3.5,17.625001 0,6.230469 -1.16797,12.089844 -3.5,17.578125 -2.33594,5.480469 -5.60157,10.320313 -9.79688,14.515626 -4.1875,4.1875002 -9.02734,7.4492191 -14.51562,9.7812505 -5.49219,2.3359376 -11.34375,3.50000012 -17.56251,3.50000012 z m 0,0"
           style="fill:#5170ff;fill-opacity:1;fill-rule:nonzero;stroke:none"
           aria-label="LEAD"
           transform="translate(79.509821,275.22977)" />
      </g>
      <g
         id="g19"
         clip-path="url(#clipPath19)">
        <g
           clip-path="url(#clipPath12)"
           id="g18">
          <path
             d="M 86.199997,19.700001 C 85.299995,43.599998 84.399994,46.599998 81.5,70.300003 c -0.800003,6.300003 -1.699997,12.5 -2.699997,18.800003 -0.400001,2.699997 -1.599998,3.599999 -4.199997,3.400002 -2.5,-0.199997 -3.400001,-1 -3.199997,-4 0.800003,-10.5 1.300003,-21.099999 2.599999,-31.599999 2.800003,-23.400001 3.300003,-26.1 6.400001,-49.4000014 0.199997,-1.1999998 0.400002,-2.5 0.599999,-3.7 C 81.300011,1.9000075 81.400009,-0.19999242 84.200005,7.6293945e-6 86.900002,0.30000764 86.600006,2.5000076 86.600006,4.2000074 c 0.1,4.1999998 -0.1,8.3000006 -0.199997,12.5000006 -0.100006,0.999993 -0.200012,1.999993 -0.200012,2.999993 z"
             style="fill:#ffd360;fill-opacity:1;fill-rule:nonzero;stroke:none"
             transform="matrix(0.7496816,0.01913419,-0.01913419,0.7496816,248.26122,103.42937)"
             clip-path="url(#clipPath6)"
             id="path13" />
          <path
             d="m 97.5,97.400002 c -3.300003,0 -4.199997,-1 -2.900002,-3.699997 C 99.199997,84.000008 103.8,74.400009 108.7,64.800003 c 1.4,-2.799999 3.4,-5.5 7.19999,-5.299999 2.6,0.1 3.30001,0.799999 2.30001,3.200001 -3.6,8 -7.4,16 -11.2,23.900001 -1.3,2.699997 -3,5.199997 -4.6,7.699997 -1.2,1.899994 -2.700003,3.199997 -4.9,3.099999 z"
             style="fill:#ffd360;fill-opacity:1;fill-rule:nonzero;stroke:none"
             transform="matrix(0.7496816,0.01913419,-0.01913419,0.7496816,248.26122,103.42937)"
             clip-path="url(#clipPath7)"
             id="path14" />
          <path
             d="M 27.5,94.400002 C 25.5,97 24.200001,97.099998 22.799999,94.5 17.799999,85 12.9,75.5 8.1999989,65.800003 c -1.4000001,-2.799999 -2.3000002,-6 0.1000003,-8.900001 1.6999998,-2 2.6999998,-2.200001 3.8999998,0.1 C 16.399998,64.699997 20.5,72.5 24.5,80.400002 26,83 27,85.800003 28,88.599998 c 0.799999,2.099999 0.9,4.099999 -0.5,5.800004 z"
             style="fill:#ffd360;fill-opacity:1;fill-rule:nonzero;stroke:none"
             transform="matrix(0.7496816,0.01913419,-0.01913419,0.7496816,248.26122,103.42937)"
             clip-path="url(#clipPath8)"
             id="path15" />
          <path
             d="m 110.3,104.7 c -0.3,-0.30001 -0.4,-0.9 0,-1.2 2.30001,-2.5 4.40001,-4.800003 6.7,-7 1.8,-1.800003 5.9,-1.900002 7.9,-0.300003 0.5,0.400001 0.80001,2.099998 0.5,2.400001 -3,2.600002 -5.9,5.300002 -9.3,7.300002 -1.8,1.1 -4,0.6 -5.8,-1.2 z"
             style="fill:#ffd360;fill-opacity:1;fill-rule:nonzero;stroke:none"
             transform="matrix(0.7496816,0.01913419,-0.01913419,0.7496816,248.26122,103.42937)"
             clip-path="url(#clipPath9)"
             id="path16" />
          <path
             d="m 9,108.5 c -0.3000002,0.3 -0.8999996,0.3 -1.1999998,0 -2.3000002,-2.4 -4.5999999,-4.7 -6.5999999,-7 -1.70000006,-1.900002 -1.60000004,-6 0.1,-7.900002 0.5,-0.5 2.0999998,-0.699996 2.4,-0.400001 C 6.1000004,96.299995 8.7000008,99.399994 10.5,102.89999 11.5,104.6 10.9,106.8 9,108.5 Z"
             style="fill:#ffd360;fill-opacity:1;fill-rule:nonzero;stroke:none"
             transform="matrix(0.7496816,0.01913419,-0.01913419,0.7496816,248.26122,103.42937)"
             clip-path="url(#clipPath10)"
             id="path17" />
          <path
             d="M 53,82.699997 C 51.599998,66.5 51.5,60.899998 49.900002,44.699997 49.299999,38.599998 48,32.599998 47,26.5 c -0.700001,-4.1 -7,-3.200001 -7,1 0,5.099998 0.200001,10.299999 0.5,15.400002 0.700001,13.299999 0.400002,16.099998 2.099998,29.299995 0.1,0.5 0.1,1.099998 0.200001,1.900001 1,6 2.400002,11.800004 4.599999,12.900002 0.2,0.1 0.299999,0.1 0.5,0.199997 3.7,0.800003 5.400001,-0.599999 5.100002,-4.5 z"
             style="fill:#ffd360;fill-opacity:1;fill-rule:nonzero;stroke:none"
             transform="matrix(0.7496816,0.01913419,-0.01913419,0.7496816,248.26122,103.42937)"
             clip-path="url(#clipPath11)"
             id="path18" />
        </g>
      </g>
    </g>
    <g
       id="g44"
       clip-path="url(#clipPath44)">
      <g
         clip-path="url(#clipPath22)"
         id="g34">
        <path
           d="M 28.297247,-6.4116673e-4 H 19.736965 L 0.70669522,-55.288582 H 10.735981 l 13.114193,39.943534 1.028302,3.311935 h 0.106837 l 1.08172,-3.258517 12.58001,-39.996952 h 7.158052 l 12.192727,39.302515 1.25533,3.952954 h 0.160255 l 1.455649,-4.126564 12.847101,-39.128905 h 9.869031 L 64.554918,-6.4116673e-4 H 55.780963 L 42.119232,-41.413178 h -0.05342 z M 108.30784,1.5751987 c -3.79269,0 -7.31162,-0.75119486 -10.550109,-2.24356862 -3.231808,-1.50238968 -6.059639,-3.59238068 -8.480156,-6.26329568 -2.423855,-2.6775923 -4.310189,-5.7892084 -5.662339,-9.3348484 -1.35549,-3.542301 -2.029896,-7.335 -2.029896,-11.378097 0,-4.049775 0.674406,-7.832459 2.029896,-11.351389 1.35215,-3.525608 3.238484,-6.623869 5.662339,-9.294784 2.420517,-2.677593 5.248348,-4.767584 8.480156,-6.263296 3.238489,-1.50239 6.737379,-2.256923 10.496699,-2.256923 3.31861,0 6.41019,0.544199 9.26807,1.629258 2.85788,1.088398 5.37522,2.630851 7.55869,4.634037 2.19015,2.003187 3.89954,4.380301 5.12816,7.131343 v -11.872217 h 8.93421 V -6.4116673e-4 h -8.93421 V -11.766022 c -1.22862,2.7176562 -2.93801,5.0747387 -5.12816,7.077925 -2.18347,2.0031863 -4.70081,3.5489783 -7.55869,4.63403753 -2.85788,1.08505927 -5.92943,1.62925817 -9.21466,1.62925817 z m 2.05661,-8.7338921 c 2.7043,0 5.24167,-0.5108125 7.61211,-1.5357761 2.3671,-1.0316409 4.43705,-2.4772735 6.20987,-4.3402365 1.76949,-1.859625 3.15836,-4.036421 4.16663,-6.530388 1.01495,-2.490628 1.52242,-5.184913 1.52242,-8.079517 0,-2.85788 -0.50747,-5.522117 -1.52242,-7.999391 -1.00827,-2.473935 -2.40382,-4.640715 -4.19333,-6.503678 -1.78952,-1.859625 -3.85948,-3.311935 -6.20988,-4.353591 -2.35041,-1.048335 -4.86107,-1.57584 -7.53198,-1.57584 -2.70764,0 -5.235,0.500796 -7.5854,1.495712 -2.35041,0.988239 -4.430381,2.403824 -6.236587,4.246755 -1.809545,1.842931 -3.218453,4.003034 -4.233401,6.476969 -1.00827,2.477274 -1.509067,5.214961 -1.509067,8.213064 0,3.071552 0.510813,5.862658 1.535776,8.373318 1.031641,2.51066 2.443888,4.670763 4.233401,6.476969 1.789513,1.809545 3.866148,3.2017593 6.236588,4.1799819 2.3671,0.9715454 4.86774,1.4556487 7.50527,1.4556487 z m 0,0"
           style="fill:#ffb800;fill-opacity:1;fill-rule:nonzero;stroke:none"
           aria-label="wa"
           transform="matrix(1.170011,0,0,1.170011,126.21222,346.8445)"
           clip-path="url(#clipPath21)"
           id="path34" />
      </g>
      <g
         clip-path="url(#clipPath24)"
         id="g35">
        <path
           d="m 59.734926,-29.006778 c 0,0.474087 -0.01002,0.971545 -0.02671,1.495712 -0.02003,0.527506 -0.06343,1.295394 -0.133546,2.310342 H 13.71506 c 0.400637,3.685862 1.482357,6.884283 3.245161,9.588585 1.769482,2.70764 3.993018,4.794292 6.663933,6.2632953 2.677593,1.462326 5.535472,2.1901503 8.573637,2.1901503 3.71925,0 6.897638,-0.8012745 9.535167,-2.4038235 2.644206,-1.6092261 4.580619,-3.9696471 5.80924,-7.0779251 H 57.99883 c -0.794597,2.530692 -1.976477,4.897791 -3.552317,7.1046343 -1.569162,2.2001662 -3.465512,4.123225 -5.689048,5.7691764 -2.21686,1.64929 -4.710827,2.94134512 -7.478562,3.87282673 -2.771075,0.94149757 -5.725775,1.41558497 -8.867438,1.41558497 -4.006373,0 -7.718945,-0.75119486 -11.137716,-2.24356862 C 17.861656,-2.2241779 14.880247,-4.3141689 12.326185,-6.9850839 9.7787997,-9.6626762 7.8023225,-12.767615 6.3967535,-16.293223 4.9878459,-19.818831 4.2867307,-23.601514 4.2867307,-27.644611 c 0,-4.049775 0.7011152,-7.832459 2.1100228,-11.351389 1.405569,-3.525608 3.3820462,-6.623869 5.9294315,-9.294784 2.554062,-2.677593 5.535471,-4.774261 8.947565,-6.290005 3.418771,-1.522422 7.131343,-2.283633 11.137716,-2.283633 3.979663,0 7.638817,0.744518 10.97746,2.230214 3.345321,1.47902 6.239926,3.518931 8.680474,6.116396 2.43721,2.600803 4.326882,5.575535 5.66234,8.920856 1.335457,3.338644 2.003186,6.870929 2.003186,10.590178 z M 14.142407,-33.440497 H 50.19976 c -0.153578,-1.956445 -0.727825,-3.819409 -1.722741,-5.582212 -0.988238,-1.769482 -2.296986,-3.331967 -3.926245,-4.687456 -1.62258,-1.362167 -3.492221,-2.430533 -5.608921,-3.205098 -2.110023,-0.774566 -4.340237,-1.161848 -6.690642,-1.161848 -2.744365,0 -5.361862,0.560892 -7.85249,1.682676 -2.493967,1.115107 -4.644054,2.75772 -6.45026,4.927838 -1.809545,2.163442 -3.07823,4.841034 -3.806054,8.0261 z M 74.478377,-6.4116673e-4 H 65.103465 V -55.288582 h 9.000984 V -42.9356 c 1.368844,-3.826086 3.505576,-6.840881 6.410196,-9.041047 2.911297,-2.206844 6.373471,-3.311935 10.389859,-3.311935 h 5.36854 v 8.186355 h -4.887775 c -3.215114,0 -6.103041,0.834661 -8.667119,2.497305 -2.564079,1.655968 -4.580619,4.056452 -6.049623,7.198116 -1.462326,3.145003 -2.19015,6.941041 -2.19015,11.391453 z m 0,0"
           style="fill:#ffb800;fill-opacity:1;fill-rule:nonzero;stroke:none"
           aria-label="      er"
           transform="matrix(1.170011,0,0,1.170011,343.82432,346.8445)"
           clip-path="url(#clipPath23)"
           id="path35" />
      </g>
      <path
         d="M 0,4.5 H 58.38464"
         style="fill:none;stroke:#ffb800;stroke-width:9;stroke-linecap:butt;stroke-linejoin:miter;stroke-miterlimit:10;stroke-dasharray:none;stroke-opacity:1"
         transform="matrix(0,1.1143879,-1.1143879,0,309.30602,282.16487)"
         clip-path="url(#clipPath25)"
         id="path36" />
      <path
         d="M 0,4.5 H 53.617908"
         style="fill:none;stroke:#ffb800;stroke-width:9;stroke-linecap:butt;stroke-linejoin:miter;stroke-miterlimit:10;stroke-dasharray:none;stroke-opacity:1"
         transform="matrix(-0.7476408,0.82637373,-0.82637373,-0.7476408,347.15834,289.07718)"
         clip-path="url(#clipPath26)"
         id="path37" />
      <path
         d="M 0,4.5 H 38.048939"
         style="fill:none;stroke:#ffb800;stroke-width:9;stroke-linecap:butt;stroke-linejoin:miter;stroke-miterlimit:10;stroke-dasharray:none;stroke-opacity:1"
         transform="matrix(-0.69861479,-0.86821523,0.86821523,-0.69861479,342.64752,347.12983)"
         clip-path="url(#clipPath27)"
         id="path38" />
      <g
         clip-path="url(#clipPath29)"
         id="g40">
        <g
           id="g39">
          <path
             d="M 0,0 H 256 V 267 H 0 Z"
             style="fill:#ffb800;fill-opacity:1;fill-rule:nonzero;stroke:none"
             transform="matrix(0.02969546,-0.02969546,0.02969546,0.02969546,338.78967,281.98567)"
             clip-path="url(#clipPath28)"
             id="path39" />
        </g>
      </g>
      <g
         clip-path="url(#clipPath31)"
         id="g42">
        <g
           id="g41">
          <path
             d="M 0,0 H 256 V 267 H 0 Z"
             style="fill:#ffb800;fill-opacity:1;fill-rule:nonzero;stroke:none"
             transform="matrix(-0.02969546,0.02969546,-0.02969546,-0.02969546,357.64049,347.38124)"
             clip-path="url(#clipPath30)"
             id="path40" />
        </g>
      </g>
      <g
         clip-path="url(#clipPath33)"
         id="g43">
        <path
           d="M 72.315556,-6.4116673e-4 H 62.126015 L 55.128218,-16.69386 H 17.882308 L 10.897865,-6.4116673e-4 H 0.70832454 L 31.931321,-73.717895 h 9.214657 z M 36.151367,-60.229775 21.301079,-24.826796 H 51.709447 L 36.859159,-60.229775 36.592068,-61.47175 h -0.106837 z m 0,0"
           style="fill:#ffb800;fill-opacity:1;fill-rule:nonzero;stroke:none"
           aria-label="A"
           transform="matrix(1.170011,0,0,1.170011,57.526721,346.8445)"
           clip-path="url(#clipPath32)"
           id="path42" />
      </g>
    </g>
    <g
       id="g50"
       clip-path="url(#clipPath50)">
      <g
         clip-path="url(#clipPath47)"
         id="g49">
        <g
           clip-path="url(#clipPath46)"
           id="g48">
          <path
             d="m 0,0 c 11.48269,5.7031546 15.736339,20.669762 20.261719,31.6875 0.888761,2.153877 1.778055,4.307537 2.667969,6.460938 0.38825,0.944076 0.776498,1.888153 1.176513,2.860839 0.611138,1.45409 1.262629,2.892445 1.968018,4.303223 2.348938,0.112823 2.348938,0.112823 5,-1 1.968487,-2.416332 3.352802,-5.130127 4.8125,-7.875 0.86919,-1.55851 1.742916,-3.114506 2.621094,-4.667969 0.64558,-1.143478 0.64558,-1.143478 1.304199,-2.310058 2.263679,-3.850447 4.903736,-7.369608 7.605957,-10.924317 1.799041,-2.323932 1.799041,-2.323932 3.53125,-5.472656 3.283684,-4.2494736 7.652145,-6.8527246 12.125,-9.75 0.989998,-0.6599998 1.980003,-1.3199999 3,-2 4.07872,-0.33182794 8.321335,-0.1974233 11.730469,2.234375 5.394935,6.1385202 4.671195,14.073811 4.269531,21.765625 -0.43319,2.825558 -1.140541,5.240694 -2,8 -0.274567,1.057674 -0.274567,1.057674 -0.554688,2.136719 -1.573982,5.567234 -4.207504,9.568538 -7.617187,14.203125 -3.163079,4.60268 -5.426155,9.632038 -7.828125,14.660156 -0.996876,1.980743 -1.996876,3.959915 -3,5.9375 -2.121147,4.23674 -4.148308,8.506493 -6.125,12.8125 -0.957794,2.08358 -1.916085,4.166931 -2.875,6.25 -0.394455,0.857224 -0.788906,1.714455 -1.195313,2.597656 -0.872337,1.831902 -1.828212,3.623764 -2.804687,5.402344 -0.66,0 -1.32,0 -2,0 -0.363514,1.125351 -0.363514,1.125351 -0.734375,2.273438 -2.777313,5.983222 -10.230374,10.478132 -16.265625,12.726562 -7.075527,1.84477 -13.933414,2.06838 -21.1875002,1.9375 -10.8597432,-0.18524 -20.9922618,1.56017 -31.4999998,4.25 -13.566693,3.11066 -28.421704,0.60099 -40.851563,-5.16406 -2.478393,-1.21543 -2.478393,-1.21543 -5.460937,-1.02344 0,-0.66 0,-1.32 0,-2 -0.680626,-0.18562 -1.361252,-0.37125 -2.0625,-0.5625 -5.867462,-2.87132 -9.807732,-7.06292 -12,-13.25 -1.289421,-5.36171 -1.275833,-10.126923 1.0625,-15.1875 4.523262,-5.313736 10.201385,-7.186234 17,-8 6.056606,-0.266273 12.128288,-0.101135 18.1875,0 3.222645,0.05344 6.445045,0.09327 9.667968,0.125 0.728257,0.01659 1.456509,0.0332 2.206833,0.05029 5.367093,0.05129 9.686558,-0.67453 14.187699,-3.675293 3.345884,-4.779831 4.173441,-10.817413 3.4375,-16.5625 -0.38567,-2.811459 -0.38567,-2.811459 -1.6875,-3.9375 -0.474234,-3.941097 -0.713473,-7.90152 -0.984864,-11.861328 C -21.04784,35.47976 -21.199543,33.509381 -21.351563,31.53906 -22.902655,9.4191504 -22.902655,9.4191504 -15.925781,1.3125 -11.209875,-3.0104144 -5.6743627,-2.0257361 0,0 Z"
             style="fill:#ffcb44;fill-opacity:1;fill-rule:nonzero;stroke:none"
             transform="matrix(0.2817035,-0.01034438,0.01034438,0.2817035,274.46263,179.87708)"
             clip-path="url(#clipPath45)"
             id="path48" />
        </g>
      </g>
    </g>
    <path
       id="path51"
       d="m 0,0 c 3.7208791,0.9426831 5.3223252,2.2444263 8.1445313,4.8125 11.1473767,9.418639 22.7530207,15.021212 36.4987797,19.818359 11.111446,3.904988 20.73841,8.363205 26.56372,19.181641 1.936409,7.205544 0.38414,11.769833 -3.246093,18.210938 -2.422356,4.097152 -2.422356,4.097152 -3.753907,5.789062 -0.66,0 -1.319999,0 -2,0 -0.257652,0.744919 -0.515304,1.489838 -0.780761,2.257324 C 57.891335,78.02166 49.402336,83.118332 42.332031,87.6875 41.498009,88.254684 40.663986,88.821877 39.804688,89.40625 29.781786,95.943596 18.44828,97.371605 6.6601563,95.382813 -1.5593053,93.087029 -7.6915402,87.211174 -11.832031,79.875 -20.9063,60.398521 -16.400038,29.465528 -9.7929688,9.8125 c 1.152977,-2.6341429 2.3317452,-4.6321545 4,-7 0.4537502,-0.6600001 0.9074998,-1.3199999 1.375,-2 1.625,-1 1.625,-1 4.4179688,-0.8125 z"
       style="fill:#ffcb44;fill-opacity:1;fill-rule:nonzero;stroke:none"
       transform="matrix(0.2817035,-0.01034438,0.01034438,0.2817035,304.5996,225.73732)"
       clip-path="url(#clipPath52)" />
    <path
       id="path53"
       d="m 1985,4334 c -127,-66 -248,-328 -268,-579 -5,-66 -12,-127 -15,-137 -6,-14 -17,-8 -72,33 -36,27 -82,63 -104,81 -21,18 -45,37 -54,42 -9,5 -26,18 -37,29 -11,10 -32,25 -47,33 -16,8 -28,19 -28,23 0,5 -17,15 -37,22 -21,7 -48,19 -60,26 -12,8 -49,17 -81,20 -168,15 -212,-113 -125,-361 23,-66 46,-122 50,-125 4,-3 23,-38 42,-78 19,-40 40,-74 48,-77 23,-9 15,-36 -11,-36 -14,0 -28,-4 -31,-10 -3,-5 -17,-10 -30,-10 -65,0 -238,-91 -251,-132 -4,-12 -19,-35 -35,-51 -49,-49 -61,-125 -30,-194 15,-31 37,-53 96,-93 66,-44 89,-54 157,-66 91,-16 221,-10 308,13 83,23 191,62 225,82 16,11 41,22 55,26 14,4 50,25 80,45 30,20 75,47 100,60 42,22 44,22 30,2 -8,-11 -40,-49 -71,-84 -75,-85 -114,-150 -149,-247 -51,-139 -83,-381 -80,-601 1,-63 2,-122 2,-130 0,-8 7,-71 14,-139 10,-85 11,-128 4,-136 -6,-7 -11,-45 -12,-84 0,-39 -3,-69 -6,-66 -7,6 -24,-27 -47,-93 -11,-29 -29,-59 -42,-67 -13,-9 -23,-22 -23,-30 0,-19 -57,-78 -98,-101 -29,-16 -41,-35 -48,-71 -4,-24 42,-53 92,-56 38,-3 60,2 97,21 26,14 47,31 47,39 0,7 4,13 9,13 18,0 67,56 91,105 14,28 33,59 43,71 9,11 24,50 31,87 8,36 17,70 20,75 3,5 10,53 16,106 9,73 8,101 0,111 -8,10 -12,85 -12,247 0,518 44,678 239,882 32,33 91,98 132,143 l 73,82 51,-19 c 34,-13 67,-35 95,-66 44,-48 52,-74 27,-94 -26,-21 -117,-172 -160,-264 -76,-163 -106,-274 -112,-416 -9,-220 40,-353 173,-461 88,-71 135,-89 259,-100 110,-10 247,6 320,37 l 39,16 26,-29 c 25,-30 50,-69 83,-130 9,-18 21,-33 25,-33 4,0 16,-20 27,-45 11,-25 23,-45 26,-45 4,0 9,-17 12,-38 6,-37 55,-144 70,-150 4,-2 7,-11 7,-19 0,-9 14,-45 30,-80 17,-35 27,-69 24,-75 -4,-6 -3,-8 4,-4 10,6 12,-14 14,-126 1,-49 -16,-124 -33,-150 -11,-14 -19,-34 -19,-43 0,-9 -16,-44 -35,-76 -43,-75 -46,-105 -7,-112 15,-3 31,-1 36,4 6,5 24,9 41,9 27,0 34,7 60,55 17,30 33,55 36,55 6,0 9,9 18,45 1,3 10,25 21,50 11,25 19,46 19,48 -1,1 6,28 16,59 11,40 15,80 11,135 -4,74 -40,211 -58,224 -5,3 -6,13 -2,22 3,10 1,17 -5,17 -6,0 -11,8 -11,18 0,26 -88,192 -101,192 -3,0 -14,20 -25,45 -10,25 -22,45 -26,45 -4,0 -8,6 -8,14 0,7 -16,34 -35,59 -19,25 -35,50 -35,56 0,5 -8,12 -18,15 -29,10 -48,52 -32,71 7,8 18,15 24,15 11,0 136,119 176,166 33,40 52,135 30,149 -6,4 -17,21 -24,40 -8,18 -27,42 -43,52 -28,18 -64,46 -89,71 -7,6 -16,12 -21,12 -15,0 -107,52 -188,107 -95,64 -155,127 -234,243 -50,73 -121,199 -121,214 0,10 128,96 144,96 22,0 21,-6 -19,-78 -30,-56 -33,-70 -28,-113 3,-30 11,-49 18,-49 7,0 15,-7 19,-15 3,-9 18,-15 35,-15 31,0 54,24 79,82 18,44 80,105 139,139 30,17 59,42 65,54 14,32 3,72 -25,86 -12,7 -28,20 -35,30 -6,9 -36,25 -65,35 -103,34 -244,11 -344,-56 -25,-17 -48,-32 -53,-33 -4,-1 -43,27 -86,63 -44,36 -91,73 -106,83 l -26,16 28,53 c 46,87 70,218 80,443 6,126 6,203 0,209 -6,6 -10,31 -10,57 0,53 -46,242 -61,247 -5,2 -9,9 -9,15 0,20 -73,122 -110,154 -80,68 -123,79 -185,47 z m 129,-206 c 9,-29 21,-62 26,-73 10,-22 38,-159 39,-190 0,-11 2,-69 4,-130 8,-252 -19,-413 -88,-530 -25,-44 -51,-55 -131,-55 -73,0 -234,-71 -376,-167 -154,-103 -341,-152 -520,-137 -93,8 -114,20 -104,59 7,29 71,95 91,95 6,0 22,11 35,25 13,14 34,25 46,25 13,0 35,5 51,11 15,6 64,14 108,19 151,16 193,67 122,147 -18,21 -41,55 -52,76 -11,20 -23,37 -28,37 -4,0 -15,15 -23,33 -8,17 -23,43 -34,57 -46,58 -113,282 -96,325 11,29 70,18 137,-27 35,-23 66,-45 69,-48 3,-4 52,-44 110,-90 58,-46 128,-105 155,-132 103,-99 147,-117 200,-82 25,16 25,18 20,123 -2,58 0,131 5,161 5,30 14,89 20,130 14,100 37,170 83,260 36,69 85,130 106,130 5,0 16,-24 25,-52 z m 385,-1556 c 22,-38 55,-88 73,-112 44,-57 199,-210 213,-210 6,0 18,-8 27,-17 21,-24 94,-76 139,-101 69,-39 83,-47 97,-59 7,-7 18,-13 23,-13 13,0 -42,-79 -71,-103 -12,-10 -45,-35 -73,-55 -29,-20 -54,-39 -57,-43 -11,-14 -167,-88 -208,-99 -136,-35 -273,-30 -326,11 -69,54 -107,258 -78,414 13,73 92,291 117,325 6,8 21,35 34,60 24,45 41,70 47,70 2,0 21,-31 43,-68 z"
       style="fill:#071a72;fill-opacity:1;fill-rule:nonzero;stroke:none"
       transform="matrix(0.02834052,0,0,-0.02834052,228.55179,295.7753)"
       clip-path="url(#clipPath54)" />
    <path
       id="path55"
       d="m 1989,2707 c -66,-45 -80,-125 -30,-175 53,-52 122,-51 171,5 36,40 39,83 10,130 -34,57 -100,74 -151,40 z"
       style="fill:#071a72;fill-opacity:1;fill-rule:nonzero;stroke:none"
       transform="matrix(0.02834052,0,0,-0.02834052,228.55179,295.7753)"
       clip-path="url(#clipPath56)" />
    <g
       id="g56">
      <path
         id="path57"
         d="m 184.35179,242.42326 h 72.52999 v 63.22599 h -72.52999 z"
         style="fill:#000000;fill-opacity:0;fill-rule:nonzero;stroke:none"
         transform="matrix(1.3333333,0,0,-1.3333333,0,510.71997)" />
    </g>
    <g
       id="g57">
      <path
         id="path58"
         d="m 171.41383,161.12727 h 92.4717 v 100.91158 h -92.4717 z"
         style="fill:#000000;fill-opacity:0;fill-rule:nonzero;stroke:none"
         transform="matrix(1.3333333,0,0,-1.3333333,0,510.71997)" />
    </g>
    <g
       id="g58">
      <path
         id="path59"
         d="m 180.27287,180.16109 h 74.75364 v 81.87775 h -74.75364 z"
         style="fill:#000000;fill-opacity:0;fill-rule:nonzero;stroke:none"
         transform="matrix(1.3333333,0,0,-1.3333333,0,510.71997)" />
    </g>
    <g
       id="g59">
      <path
         id="path60"
         d="m 224.46143,122.62301 h 7.52212 v 48.79735 h -7.52212 z"
         style="fill:#000000;fill-opacity:0;fill-rule:nonzero;stroke:none"
         transform="matrix(1.3333333,0,0,-1.3333333,0,510.71997)" />
    </g>
    <g
       id="g60">
      <path
         id="path61"
         d="m 224.73146,133.00342 h 35.64322 v 38.2779 h -35.64322 z"
         style="fill:#000000;fill-opacity:0;fill-rule:nonzero;stroke:none"
         transform="matrix(1.3333333,0,0,-1.3333333,0,510.71997)" />
    </g>
    <g
       id="g61">
      <path
         id="path62"
         d="m 237.05087,122.69194 h 25.79662 v 29.49165 h -25.79662 z"
         style="fill:#000000;fill-opacity:0;fill-rule:nonzero;stroke:none"
         transform="matrix(1.3333333,0,0,-1.3333333,0,510.71997)" />
    </g>
  </g>
</svg>
