<?xml version="1.0" encoding="UTF-8" standalone="no"?>
<!-- Created with Inkscape (http://www.inkscape.org/) -->

<svg
   version="1.1"
   id="svg1"
   width="500"
   height="500"
   viewBox="0 0 500 500"
   sodipodi:docname="page4_10654495609497132023.pdf"
   xmlns:inkscape="http://www.inkscape.org/namespaces/inkscape"
   xmlns:sodipodi="http://sodipodi.sourceforge.net/DTD/sodipodi-0.dtd"
   xmlns="http://www.w3.org/2000/svg"
   xmlns:svg="http://www.w3.org/2000/svg">
  <defs
     id="defs1">
    <clipPath
       clipPathUnits="userSpaceOnUse"
       id="clipPath4">
      <path
         d="M 0,0 H 651 V 234 H 0 Z"
         transform="matrix(0.56270263,0,0,0.56270263,-0.2661995,-98.164988)"
         id="path4" />
    </clipPath>
    <clipPath
       clipPathUnits="userSpaceOnUse"
       id="clipPath6">
      <path
         d="M 0,0 H 1562.5 V 1562.5 H 0 Z"
         transform="scale(0.31999999)"
         clip-rule="evenodd"
         id="path6" />
    </clipPath>
    <clipPath
       clipPathUnits="userSpaceOnUse"
       id="clipPath7">
      <path
         d="M 0,0 H 550 V 199 H 0 Z"
         transform="matrix(0.48093789,0,0,0.48093789,-0.17665705,-76.347028)"
         id="path7" />
    </clipPath>
    <clipPath
       clipPathUnits="userSpaceOnUse"
       id="clipPath8">
      <path
         d="M 0,0 H 713 V 199 H 0 Z"
         transform="matrix(0.31999999,0,0,0.31999999,241.59999,220.15999)"
         id="path8" />
    </clipPath>
    <clipPath
       clipPathUnits="userSpaceOnUse"
       id="clipPath9">
      <path
         d="M 0,0 H 204 V 199 H 0 Z"
         transform="matrix(0.48093789,0,0,0.48093789,-0.04520343,-76.347028)"
         id="path9" />
    </clipPath>
    <clipPath
       clipPathUnits="userSpaceOnUse"
       id="clipPath10">
      <path
         d="M 0,0 H 713 V 199 H 0 Z"
         transform="matrix(0.31999999,0,0,0.31999999,241.59999,220.15999)"
         id="path10" />
    </clipPath>
    <clipPath
       clipPathUnits="userSpaceOnUse"
       id="clipPath11">
      <path
         d="M 0,0 H 713 V 199 H 0 Z"
         transform="matrix(0,-0.50494324,0.50494324,0,-22.117271,226.08846)"
         id="path11" />
    </clipPath>
    <clipPath
       clipPathUnits="userSpaceOnUse"
       id="clipPath12">
      <path
         d="M 0,0 H 713 V 199 H 0 Z"
         transform="matrix(-0.33876549,-0.37444042,0.37444042,-0.33876549,153.46989,211.8438)"
         id="path12" />
    </clipPath>
    <clipPath
       clipPathUnits="userSpaceOnUse"
       id="clipPath13">
      <path
         d="M 0,0 H 713 V 199 H 0 Z"
         transform="matrix(-0.31655122,0.39339929,-0.39339929,-0.31655122,223.1424,-149.04271)"
         id="path13" />
    </clipPath>
    <clipPath
       clipPathUnits="userSpaceOnUse"
       id="clipPath14">
      <path
         d="M 0,0 H 28 V 15 H 0 Z"
         transform="matrix(9.4745583,9.4745583,-9.4745583,9.4745583,3.1867978,-5.9673874)"
         id="path14" />
    </clipPath>
    <clipPath
       clipPathUnits="userSpaceOnUse"
       id="clipPath15">
      <path
         d="M 527.76691,44.08353 514.25702,57.593399 500.14673,43.483093 Z"
         transform="matrix(0.31999999,0,0,0.31999999,241.59999,220.15999)"
         id="path15" />
    </clipPath>
    <clipPath
       clipPathUnits="userSpaceOnUse"
       id="clipPath16">
      <path
         d="M 0,0 H 28 V 15 H 0 Z"
         transform="matrix(-9.4745583,-9.4745583,9.4745583,-9.4745583,122.66906,401.22115)"
         id="path16" />
    </clipPath>
    <clipPath
       clipPathUnits="userSpaceOnUse"
       id="clipPath17">
      <path
         d="m 506.02704,159.09958 13.50989,-13.50987 14.11029,14.1103 z"
         transform="matrix(0.31999999,0,0,0.31999999,241.59999,220.15999)"
         id="path17" />
    </clipPath>
    <clipPath
       clipPathUnits="userSpaceOnUse"
       id="clipPath18">
      <path
         d="M 0,0 H 153 V 199 H 0 Z"
         transform="matrix(0.48093789,0,0,0.48093789,-0.14610002,-76.347028)"
         id="path18" />
    </clipPath>
    <clipPath
       clipPathUnits="userSpaceOnUse"
       id="clipPath19">
      <path
         d="M 0,0 H 713 V 199 H 0 Z"
         transform="matrix(0.31999999,0,0,0.31999999,241.59999,220.15999)"
         id="path19" />
    </clipPath>
    <clipPath
       clipPathUnits="userSpaceOnUse"
       id="clipPath30">
      <path
         d="M 0,0 H 1562.5 V 1562.5 H 0 Z"
         transform="scale(0.31999999)"
         clip-rule="evenodd"
         id="path30" />
    </clipPath>
    <clipPath
       clipPathUnits="userSpaceOnUse"
       id="clipPath31">
      <path
         d="m 391.33359,647.2962 171.75924,-6.30713 6.8805,187.37372 -171.75922,6.30713 z"
         transform="matrix(1.9950161,0.07325854,-0.07325854,1.9950161,-852.22524,-1377.7224)"
         id="path31" />
    </clipPath>
    <clipPath
       clipPathUnits="userSpaceOnUse"
       id="clipPath32">
      <path
         d="m 391.33359,647.2962 171.75924,-6.30713 6.8805,187.37372 -171.75922,6.30713 z"
         transform="scale(0.31999999)"
         id="path32" />
    </clipPath>
    <clipPath
       clipPathUnits="userSpaceOnUse"
       id="clipPath33">
      <path
         d="M 0,0 H 1562.5 V 1562.5 H 0 Z"
         transform="scale(0.31999999)"
         id="path33" />
    </clipPath>
    <clipPath
       clipPathUnits="userSpaceOnUse"
       id="clipPath36">
      <path
         d="M 0,0 H 1562.5 V 1562.5 H 0 Z"
         transform="scale(0.31999999)"
         id="path36" />
    </clipPath>
    <clipPath
       clipPathUnits="userSpaceOnUse"
       id="clipPath38">
      <path
         d="M 0,0 H 1562.5 V 1562.5 H 0 Z"
         transform="matrix(1.9950161,0.07325854,-0.07325854,1.9950161,-953.09239,-1544.2224)"
         id="path38" />
    </clipPath>
    <clipPath
       clipPathUnits="userSpaceOnUse"
       id="clipPath40">
      <path
         d="m 370.34116,641.04572 h 218.75003 v 240.625 H 370.34116 Z"
         transform="matrix(19.854688,0,0,-19.854688,-7353.0083,17471.502)"
         clip-rule="evenodd"
         id="path40" />
    </clipPath>
    <clipPath
       clipPathUnits="userSpaceOnUse"
       id="clipPath42">
      <path
         d="m 370.34116,641.04572 h 218.75003 v 240.625 H 370.34116 Z"
         transform="matrix(19.854688,0,0,-19.854688,-7353.0083,17471.502)"
         clip-rule="evenodd"
         id="path42" />
    </clipPath>
  </defs>
  <sodipodi:namedview
     id="namedview1"
     pagecolor="#ffffff"
     bordercolor="#000000"
     borderopacity="0.25"
     inkscape:showpageshadow="2"
     inkscape:pageopacity="0.0"
     inkscape:pagecheckerboard="0"
     inkscape:deskcolor="#d1d1d1">
    <inkscape:page
       x="0"
       y="0"
       inkscape:label="1"
       id="page1"
       width="500"
       height="500"
       margin="0"
       bleed="0" />
  </sodipodi:namedview>
  <g
     id="g1"
     inkscape:groupmode="layer"
     inkscape:label="1">

    <g
       id="g5"
       clip-path="url(#clipPath6)">
      <path
         d="m 49.261527,-45.359946 h 25.14028 V 0.00246025 H 3.899121 V -90.749828 h 45.362406 z m 32.407607,-45.499785 h 75.173556 v 30.580472 H 138.0493 v 3.901551 h 18.79339 v 21.760767 H 138.0493 v 3.901551 h 18.79339 V -0.13491833 H 81.669134 Z M 156.98007,0.00246025 214.26694,-97.096718 271.58128,0.00246025 Z M 316.81318,0.13983882 H 271.45077 V -90.749828 h 45.36241 c 6.22324,0 12.07557,1.195194 17.55698,3.571843 5.49514,2.383518 10.33087,5.653129 14.50718,9.808831 4.19004,4.141964 7.45278,8.97769 9.78135,14.507177 2.3423,5.536357 3.51689,11.402422 3.51689,17.611934 0,6.230118 -1.17459,12.089315 -3.51689,17.584458 -2.32857,5.481405 -5.59131,10.317131 -9.78135,14.507178 -4.17631,4.1969151 -9.01204,7.4665252 -14.50718,9.80883 -5.48141,2.3285668 -11.33374,3.48941582 -17.55698,3.48941582 z m 0,0"
         style="fill:#5170ff;fill-opacity:1;fill-rule:nonzero;stroke:none"
         aria-label="LEAD"
         transform="matrix(0.56868401,0,0,0.56868401,33.751382,269.90485)"
         clip-path="url(#clipPath4)"
         id="path5" />
    </g>
    <g
       id="g30"
       clip-path="url(#clipPath30)">
      <g
         clip-path="url(#clipPath8)"
         id="g20">
        <path
           d="M 28.2978,-0.0025895 H 19.726397 L 0.70492742,-55.305752 H 10.732295 l 13.127162,39.96857 1.033265,3.287662 h 0.09393 l 1.080231,-3.240695 12.587047,-40.015537 h 7.162405 l 12.187831,39.311038 1.244614,3.945194 h 0.164384 l 1.479447,-4.109577 12.845363,-39.146655 h 9.862984 L 64.579493,-0.0025895 H 55.79674 L 42.129462,-41.427124 h -0.07045 z m 80.01933,1.5733808 c -3.80429,0 -7.32679,-0.75146543 -10.567482,-2.25439638 C 94.520695,-2.186536 91.696829,-4.2648077 89.272178,-6.9301618 86.85927,-9.6072576 84.974735,-12.712923 83.612704,-16.25303 c -1.362031,-3.551849 -2.043047,-7.350272 -2.043047,-11.389399 0,-4.050868 0.681016,-7.843421 2.043047,-11.365915 1.362031,-3.522495 3.246566,-6.62229 5.659474,-9.299385 2.424651,-2.677096 5.248517,-4.755368 8.47747,-6.246557 3.240692,-1.502931 6.739702,-2.254397 10.497032,-2.254397 3.33463,0 6.42268,0.540116 9.2759,1.620348 2.84735,1.080231 5.36594,2.624258 7.56162,4.626209 2.18982,2.007822 3.89823,4.385506 5.11936,7.138922 v -11.882548 h 8.94714 v 55.3031625 h -8.94714 V -11.767721 c -1.22113,2.7123209 -2.92954,5.0665213 -5.11936,7.0684723 -2.19568,2.0078218 -4.71427,3.5577193 -7.56162,4.64969261 -2.85322,1.08023159 -5.91779,1.62034739 -9.20545,1.62034739 z m 2.04305,-8.7357861 c 2.70645,0 5.24264,-0.5048909 7.60859,-1.5264142 2.37768,-1.0332651 4.45008,-2.477488 6.22307,-4.34441 1.76712,-1.861051 3.15263,-4.039127 4.15654,-6.528356 1.01566,-2.500971 1.52642,-5.195679 1.52642,-8.078254 0,-2.864962 -0.51076,-5.530316 -1.52642,-8.007804 -1.00391,-2.471617 -2.39529,-4.637951 -4.18002,-6.504873 -1.78473,-1.861051 -3.86301,-3.317015 -6.22308,-4.367893 -2.34833,-1.045007 -4.85517,-1.573381 -7.51465,-1.573381 -2.72406,0 -5.26026,0.504891 -7.60859,1.502931 -2.34833,0.986299 -4.432472,2.407038 -6.246557,4.250477 -1.802342,1.849309 -3.21134,4.009773 -4.226993,6.481389 -1.003911,2.477488 -1.502931,5.213292 -1.502931,8.219154 0,3.070441 0.516633,5.864953 1.549898,8.383537 1.033265,2.506842 2.442263,4.667305 4.226993,6.481389 1.784731,1.802343 3.85713,3.1878579 6.22307,4.1565439 2.37769,0.9745567 4.88453,1.4559643 7.51466,1.4559643 z m 0,0"
           style="fill:#ffb800;fill-opacity:1;fill-rule:nonzero;stroke:none"
           aria-label="wa"
           transform="matrix(0.66536656,0,0,0.66536656,280.75753,270.95875)"
           clip-path="url(#clipPath7)"
           id="path20" />
      </g>
      <g
         clip-path="url(#clipPath10)"
         id="g21">
        <path
           d="m 59.743996,-29.00446 c 0,0.469666 -0.01174,0.974557 -0.02348,1.502931 -0.01761,0.516632 -0.06458,1.28571 -0.1409,2.301363 h -45.86288 c 0.387474,3.681007 1.467706,6.874735 3.240695,9.581185 1.78473,2.71232 4.003902,4.802334 6.669256,6.2700397 2.677096,1.4559643 5.530316,2.1839465 8.571403,2.1839465 3.722102,0 6.904089,-0.7984321 9.534218,-2.3952962 2.641871,-1.608606 4.585114,-3.974548 5.823858,-7.091955 h 10.450066 c -0.798432,2.536196 -1.984338,4.908008 -3.545977,7.1154383 -1.56751,2.2074298 -3.463787,4.1330601 -5.682958,5.7768908 -2.225042,1.6438308 -4.720143,2.93541204 -7.491171,3.87474388 -2.771029,0.93933182 -5.724054,1.40899772 -8.853203,1.40899772 -4.027385,0 -7.743617,-0.75146543 -11.154566,-2.25439637 C 17.861538,-2.2335026 14.879159,-4.323516 12.331221,-7.0006117 9.7774131,-9.6777075 7.7989454,-12.777503 6.3899476,-16.299997 4.9809498,-19.822491 4.276451,-23.603302 4.276451,-27.642429 c 0,-4.050868 0.7044988,-7.843421 2.1134966,-11.365915 1.4089978,-3.522495 3.3874655,-6.62229 5.9412734,-9.299385 2.547938,-2.677096 5.530317,-4.77298 8.947136,-6.293524 3.410949,-1.514672 7.127181,-2.277879 11.154566,-2.277879 3.956935,0 7.614459,0.745594 10.966699,2.230913 3.34637,1.491189 6.234815,3.534236 8.665336,6.12914 2.442263,2.600775 4.326798,5.577283 5.659475,8.923652 1.344418,3.334628 2.019563,6.868864 2.019563,10.590967 z m -45.581077,-4.438343 h 36.046859 c -0.1409,-1.954984 -0.716241,-3.816036 -1.714281,-5.589025 -0.986298,-1.767118 -2.295492,-3.322886 -3.92171,-4.673175 -1.632089,-1.362032 -3.499011,-2.430522 -5.612508,-3.217212 -2.113496,-0.78082 -4.34441,-1.174165 -6.692739,-1.174165 -2.759287,0 -5.377675,0.563599 -7.866904,1.690798 -2.48923,1.115456 -4.643822,2.759287 -6.457907,4.931492 -1.802343,2.160463 -3.06457,4.837559 -3.78081,8.031287 z M 74.473894,-0.0025895 H 65.104059 V -55.305752 h 8.994102 v 12.375697 c 1.373773,-3.833648 3.522494,-6.857122 6.434423,-9.064552 2.911929,-2.20743 6.369844,-3.311145 10.379617,-3.311145 h 5.354191 v 8.195671 H 91.40535 c -3.228953,0 -6.123269,0.833657 -8.688819,2.489229 -2.571421,1.661443 -4.590985,4.06261 -6.058691,7.209372 -1.455964,3.146762 -2.183946,6.945185 -2.183946,11.389398 z m 0,0"
           style="fill:#ffb800;fill-opacity:1;fill-rule:nonzero;stroke:none"
           aria-label="      er"
           transform="matrix(0.66536656,0,0,0.66536656,404.51006,270.95875)"
           clip-path="url(#clipPath9)"
           id="path21" />
      </g>
      <path
         d="M 0,4.5 H 58.38464"
         style="fill:none;stroke:#ffb800;stroke-width:9;stroke-linecap:butt;stroke-linejoin:miter;stroke-miterlimit:10;stroke-dasharray:none;stroke-opacity:1"
         transform="matrix(0,0.63373457,-0.63373457,0,384.88006,234.17647)"
         clip-path="url(#clipPath11)"
         id="path22" />
      <path
         d="M 0,4.5 H 53.617908"
         style="fill:none;stroke:#ffb800;stroke-width:9;stroke-linecap:butt;stroke-linejoin:miter;stroke-miterlimit:10;stroke-dasharray:none;stroke-opacity:1"
         transform="matrix(-0.42517134,0.46994555,-0.46994555,-0.42517134,406.40604,238.10741)"
         clip-path="url(#clipPath12)"
         id="path23" />
      <path
         d="M 0,4.5 H 38.048939"
         style="fill:none;stroke:#ffb800;stroke-width:9;stroke-linecap:butt;stroke-linejoin:miter;stroke-miterlimit:10;stroke-dasharray:none;stroke-opacity:1"
         transform="matrix(-0.39729109,-0.4937401,0.4937401,-0.39729109,403.84084,271.121)"
         clip-path="url(#clipPath13)"
         id="path24" />
      <g
         clip-path="url(#clipPath15)"
         id="g26">
        <g
           id="g25">
          <path
             d="M 0,0 H 256 V 267 H 0 Z"
             style="fill:#ffb800;fill-opacity:1;fill-rule:nonzero;stroke:none"
             transform="matrix(0.01688733,-0.01688733,0.01688733,0.01688733,401.64694,234.07458)"
             clip-path="url(#clipPath14)"
             id="path25" />
        </g>
      </g>
      <g
         clip-path="url(#clipPath17)"
         id="g28">
        <g
           id="g27">
          <path
             d="M 0,0 H 256 V 267 H 0 Z"
             style="fill:#ffb800;fill-opacity:1;fill-rule:nonzero;stroke:none"
             transform="matrix(-0.01688733,0.01688733,-0.01688733,-0.01688733,412.36709,271.26399)"
             clip-path="url(#clipPath16)"
             id="path26" />
        </g>
      </g>
      <g
         clip-path="url(#clipPath19)"
         id="g29">
        <path
           d="M 72.32572,-0.0025895 H 62.133969 L 55.135947,-16.699213 H 17.891439 L 10.893417,-0.0025895 H 0.70166667 L 31.93445,-73.740139 h 9.205452 z M 36.161444,-60.237244 21.296517,-24.824433 h 30.410869 l -14.841443,-35.412811 -0.2818,-1.244615 h -0.09393 z m 0,0"
           style="fill:#ffb800;fill-opacity:1;fill-rule:nonzero;stroke:none"
           aria-label="A"
           transform="matrix(0.66536656,0,0,0.66536656,241.6972,270.95875)"
           clip-path="url(#clipPath18)"
           id="path28" />
      </g>
    </g>
    <g
       id="g36"
       clip-path="url(#clipPath36)">
      <g
         clip-path="url(#clipPath33)"
         id="g35">
        <g
           clip-path="url(#clipPath32)"
           id="g34">
          <path
             d="m 0,0 c 11.48269,5.7031546 15.736339,20.669762 20.261719,31.6875 0.888761,2.153877 1.778055,4.307537 2.667969,6.460938 0.38825,0.944076 0.776498,1.888153 1.176513,2.860839 0.611138,1.45409 1.262629,2.892445 1.968018,4.303223 2.348938,0.112823 2.348938,0.112823 5,-1 1.968487,-2.416332 3.352802,-5.130127 4.8125,-7.875 0.86919,-1.55851 1.742916,-3.114506 2.621094,-4.667969 0.64558,-1.143478 0.64558,-1.143478 1.304199,-2.310058 2.263679,-3.850447 4.903736,-7.369608 7.605957,-10.924317 1.799041,-2.323932 1.799041,-2.323932 3.53125,-5.472656 3.283684,-4.2494736 7.652145,-6.8527246 12.125,-9.75 0.989998,-0.6599998 1.980003,-1.3199999 3,-2 4.07872,-0.33182794 8.321335,-0.1974233 11.730469,2.234375 5.394935,6.1385202 4.671195,14.073811 4.269531,21.765625 -0.43319,2.825558 -1.140541,5.240694 -2,8 -0.274567,1.057674 -0.274567,1.057674 -0.554688,2.136719 -1.573982,5.567234 -4.207504,9.568538 -7.617187,14.203125 -3.163079,4.60268 -5.426155,9.632038 -7.828125,14.660156 -0.996876,1.980743 -1.996876,3.959915 -3,5.9375 -2.121147,4.23674 -4.148308,8.506493 -6.125,12.8125 -0.957794,2.08358 -1.916085,4.166931 -2.875,6.25 -0.394455,0.857224 -0.788906,1.714455 -1.195313,2.597656 -0.872337,1.831902 -1.828212,3.623764 -2.804687,5.402344 -0.66,0 -1.32,0 -2,0 -0.363514,1.125351 -0.363514,1.125351 -0.734375,2.273438 -2.777313,5.983222 -10.230374,10.478132 -16.265625,12.726562 -7.075527,1.84477 -13.933414,2.06838 -21.1875002,1.9375 -10.8597432,-0.18524 -20.9922618,1.56017 -31.4999998,4.25 -13.566693,3.11066 -28.421704,0.60099 -40.851563,-5.16406 -2.478393,-1.21543 -2.478393,-1.21543 -5.460937,-1.02344 0,-0.66 0,-1.32 0,-2 -0.680626,-0.18562 -1.361252,-0.37125 -2.0625,-0.5625 -5.867462,-2.87132 -9.807732,-7.06292 -12,-13.25 -1.289421,-5.36171 -1.275833,-10.126923 1.0625,-15.1875 4.523262,-5.313736 10.201385,-7.186234 17,-8 6.056606,-0.266273 12.128288,-0.101135 18.1875,0 3.222645,0.05344 6.445045,0.09327 9.667968,0.125 0.728257,0.01659 1.456509,0.0332 2.206833,0.05029 5.367093,0.05129 9.686558,-0.67453 14.187699,-3.675293 3.345884,-4.779831 4.173441,-10.817413 3.4375,-16.5625 -0.38567,-2.811459 -0.38567,-2.811459 -1.6875,-3.9375 -0.474234,-3.941097 -0.713473,-7.90152 -0.984864,-11.861328 C -21.04784,35.47976 -21.199543,33.509381 -21.351563,31.53906 -22.902655,9.4191504 -22.902655,9.4191504 -15.925781,1.3125 -11.209875,-3.0104144 -5.6743627,-2.0257361 0,0 Z"
             style="fill:#ffcb44;fill-opacity:1;fill-rule:nonzero;stroke:none"
             transform="matrix(0.16018371,-0.00588207,0.00588207,0.16018371,144.61646,215.67583)"
             clip-path="url(#clipPath31)"
             id="path34" />
        </g>
      </g>
    </g>
    <path
       id="path37"
       d="m 0,0 c 3.7208791,0.9426831 5.3223252,2.2444263 8.1445313,4.8125 11.1473767,9.418639 22.7530207,15.021212 36.4987797,19.818359 11.111446,3.904988 20.73841,8.363205 26.56372,19.181641 1.936409,7.205544 0.38414,11.769833 -3.246093,18.210938 -2.422356,4.097152 -2.422356,4.097152 -3.753907,5.789062 -0.66,0 -1.319999,0 -2,0 -0.257652,0.744919 -0.515304,1.489838 -0.780761,2.257324 C 57.891335,78.02166 49.402336,83.118332 42.332031,87.6875 41.498009,88.254684 40.663986,88.821877 39.804688,89.40625 29.781786,95.943596 18.44828,97.371605 6.6601563,95.382813 -1.5593053,93.087029 -7.6915402,87.211174 -11.832031,79.875 -20.9063,60.398521 -16.400038,29.465528 -9.7929688,9.8125 c 1.152977,-2.6341429 2.3317452,-4.6321545 4,-7 0.4537502,-0.6600001 0.9074998,-1.3199999 1.375,-2 1.625,-1 1.625,-1 4.4179688,-0.8125 z"
       style="fill:#ffcb44;fill-opacity:1;fill-rule:nonzero;stroke:none"
       transform="matrix(0.16018371,-0.00588207,0.00588207,0.16018371,161.7531,241.75312)"
       clip-path="url(#clipPath38)" />
    <path
       id="path39"
       d="m 1985,4334 c -127,-66 -248,-328 -268,-579 -5,-66 -12,-127 -15,-137 -6,-14 -17,-8 -72,33 -36,27 -82,63 -104,81 -21,18 -45,37 -54,42 -9,5 -26,18 -37,29 -11,10 -32,25 -47,33 -16,8 -28,19 -28,23 0,5 -17,15 -37,22 -21,7 -48,19 -60,26 -12,8 -49,17 -81,20 -168,15 -212,-113 -125,-361 23,-66 46,-122 50,-125 4,-3 23,-38 42,-78 19,-40 40,-74 48,-77 23,-9 15,-36 -11,-36 -14,0 -28,-4 -31,-10 -3,-5 -17,-10 -30,-10 -65,0 -238,-91 -251,-132 -4,-12 -19,-35 -35,-51 -49,-49 -61,-125 -30,-194 15,-31 37,-53 96,-93 66,-44 89,-54 157,-66 91,-16 221,-10 308,13 83,23 191,62 225,82 16,11 41,22 55,26 14,4 50,25 80,45 30,20 75,47 100,60 42,22 44,22 30,2 -8,-11 -40,-49 -71,-84 -75,-85 -114,-150 -149,-247 -51,-139 -83,-381 -80,-601 1,-63 2,-122 2,-130 0,-8 7,-71 14,-139 10,-85 11,-128 4,-136 -6,-7 -11,-45 -12,-84 0,-39 -3,-69 -6,-66 -7,6 -24,-27 -47,-93 -11,-29 -29,-59 -42,-67 -13,-9 -23,-22 -23,-30 0,-19 -57,-78 -98,-101 -29,-16 -41,-35 -48,-71 -4,-24 42,-53 92,-56 38,-3 60,2 97,21 26,14 47,31 47,39 0,7 4,13 9,13 18,0 67,56 91,105 14,28 33,59 43,71 9,11 24,50 31,87 8,36 17,70 20,75 3,5 10,53 16,106 9,73 8,101 0,111 -8,10 -12,85 -12,247 0,518 44,678 239,882 32,33 91,98 132,143 l 73,82 51,-19 c 34,-13 67,-35 95,-66 44,-48 52,-74 27,-94 -26,-21 -117,-172 -160,-264 -76,-163 -106,-274 -112,-416 -9,-220 40,-353 173,-461 88,-71 135,-89 259,-100 110,-10 247,6 320,37 l 39,16 26,-29 c 25,-30 50,-69 83,-130 9,-18 21,-33 25,-33 4,0 16,-20 27,-45 11,-25 23,-45 26,-45 4,0 9,-17 12,-38 6,-37 55,-144 70,-150 4,-2 7,-11 7,-19 0,-9 14,-45 30,-80 17,-35 27,-69 24,-75 -4,-6 -3,-8 4,-4 10,6 12,-14 14,-126 1,-49 -16,-124 -33,-150 -11,-14 -19,-34 -19,-43 0,-9 -16,-44 -35,-76 -43,-75 -46,-105 -7,-112 15,-3 31,-1 36,4 6,5 24,9 41,9 27,0 34,7 60,55 17,30 33,55 36,55 6,0 9,9 18,45 1,3 10,25 21,50 11,25 19,46 19,48 -1,1 6,28 16,59 11,40 15,80 11,135 -4,74 -40,211 -58,224 -5,3 -6,13 -2,22 3,10 1,17 -5,17 -6,0 -11,8 -11,18 0,26 -88,192 -101,192 -3,0 -14,20 -25,45 -10,25 -22,45 -26,45 -4,0 -8,6 -8,14 0,7 -16,34 -35,59 -19,25 -35,50 -35,56 0,5 -8,12 -18,15 -29,10 -48,52 -32,71 7,8 18,15 24,15 11,0 136,119 176,166 33,40 52,135 30,149 -6,4 -17,21 -24,40 -8,18 -27,42 -43,52 -28,18 -64,46 -89,71 -7,6 -16,12 -21,12 -15,0 -107,52 -188,107 -95,64 -155,127 -234,243 -50,73 -121,199 -121,214 0,10 128,96 144,96 22,0 21,-6 -19,-78 -30,-56 -33,-70 -28,-113 3,-30 11,-49 18,-49 7,0 15,-7 19,-15 3,-9 18,-15 35,-15 31,0 54,24 79,82 18,44 80,105 139,139 30,17 59,42 65,54 14,32 3,72 -25,86 -12,7 -28,20 -35,30 -6,9 -36,25 -65,35 -103,34 -244,11 -344,-56 -25,-17 -48,-32 -53,-33 -4,-1 -43,27 -86,63 -44,36 -91,73 -106,83 l -26,16 28,53 c 46,87 70,218 80,443 6,126 6,203 0,209 -6,6 -10,31 -10,57 0,53 -46,242 -61,247 -5,2 -9,9 -9,15 0,20 -73,122 -110,154 -80,68 -123,79 -185,47 z m 129,-206 c 9,-29 21,-62 26,-73 10,-22 38,-159 39,-190 0,-11 2,-69 4,-130 8,-252 -19,-413 -88,-530 -25,-44 -51,-55 -131,-55 -73,0 -234,-71 -376,-167 -154,-103 -341,-152 -520,-137 -93,8 -114,20 -104,59 7,29 71,95 91,95 6,0 22,11 35,25 13,14 34,25 46,25 13,0 35,5 51,11 15,6 64,14 108,19 151,16 193,67 122,147 -18,21 -41,55 -52,76 -11,20 -23,37 -28,37 -4,0 -15,15 -23,33 -8,17 -23,43 -34,57 -46,58 -113,282 -96,325 11,29 70,18 137,-27 35,-23 66,-45 69,-48 3,-4 52,-44 110,-90 58,-46 128,-105 155,-132 103,-99 147,-117 200,-82 25,16 25,18 20,123 -2,58 0,131 5,161 5,30 14,89 20,130 14,100 37,170 83,260 36,69 85,130 106,130 5,0 16,-24 25,-52 z m 385,-1556 c 22,-38 55,-88 73,-112 44,-57 199,-210 213,-210 6,0 18,-8 27,-17 21,-24 94,-76 139,-101 69,-39 83,-47 97,-59 7,-7 18,-13 23,-13 13,0 -42,-79 -71,-103 -12,-10 -45,-35 -73,-55 -29,-20 -54,-39 -57,-43 -11,-14 -167,-88 -208,-99 -136,-35 -273,-30 -326,11 -69,54 -107,258 -78,414 13,73 92,291 117,325 6,8 21,35 34,60 24,45 41,70 47,70 2,0 21,-31 43,-68 z"
       style="fill:#071a72;fill-opacity:1;fill-rule:nonzero;stroke:none"
       transform="matrix(0.0161171,0,0,-0.0161171,118.50917,281.58995)"
       clip-path="url(#clipPath40)" />
    <path
       id="path41"
       d="m 1989,2707 c -66,-45 -80,-125 -30,-175 53,-52 122,-51 171,5 36,40 39,83 10,130 -34,57 -100,74 -151,40 z"
       style="fill:#071a72;fill-opacity:1;fill-rule:nonzero;stroke:none"
       transform="matrix(0.0161171,0,0,-0.0161171,118.50917,281.58995)"
       clip-path="url(#clipPath42)" />
    <g
       id="g42">
      <path
         id="path43"
         d="m 88.88188,171.80222 h 52.58718 v 57.38681 H 88.88188 Z"
         style="fill:#000000;fill-opacity:0;fill-rule:nonzero;stroke:none"
         transform="matrix(1.3333333,0,0,-1.3333333,0,510.71997)" />
    </g>
    <g
       id="g43">
      <path
         id="path44"
         d="m 93.91987,182.62645 h 42.5112 v 46.56258 h -42.5112 z"
         style="fill:#000000;fill-opacity:0;fill-rule:nonzero;stroke:none"
         transform="matrix(1.3333333,0,0,-1.3333333,0,510.71997)" />
    </g>
    <g
       id="g44">
      <path
         id="path45"
         d="m 284.38464,179.65964 h 4.27771 v 27.75027 h -4.27771 z"
         style="fill:#000000;fill-opacity:0;fill-rule:nonzero;stroke:none"
         transform="matrix(1.3333333,0,0,-1.3333333,0,510.71997)" />
    </g>
    <g
       id="g45">
      <path
         id="path46"
         d="m 284.5382,185.5628 h 20.26973 v 21.76803 H 284.5382 Z"
         style="fill:#000000;fill-opacity:0;fill-rule:nonzero;stroke:none"
         transform="matrix(1.3333333,0,0,-1.3333333,0,510.71997)" />
    </g>
    <g
       id="g46">
      <path
         id="path47"
         d="m 291.54407,179.69884 h 14.67013 v 16.77143 h -14.67013 z"
         style="fill:#000000;fill-opacity:0;fill-rule:nonzero;stroke:none"
         transform="matrix(1.3333333,0,0,-1.3333333,0,510.71997)" />
    </g>
  </g>
</svg>
