<?xml version="1.0" encoding="UTF-8" standalone="no"?>
<!-- Created with Inkscape (http://www.inkscape.org/) -->

<svg
   version="1.1"
   id="svg1"
   width="500"
   height="75"
   viewBox="0 215 500 75"
   sodipodi:docname="page5_8715750923319087122.pdf"
   xmlns:inkscape="http://www.inkscape.org/namespaces/inkscape"
   xmlns:sodipodi="http://sodipodi.sourceforge.net/DTD/sodipodi-0.dtd"
   xmlns="http://www.w3.org/2000/svg"
   xmlns:svg="http://www.w3.org/2000/svg">
  <defs
     id="defs1">
    <clipPath
       clipPathUnits="userSpaceOnUse"
       id="clipPath4">
      <path
         d="M 0,0 H 651 V 234 H 0 Z"
         transform="matrix(0.56270263,0,0,0.56270263,-0.2661995,-98.164988)"
         id="path4" />
    </clipPath>
    <clipPath
       clipPathUnits="userSpaceOnUse"
       id="clipPath6">
      <path
         d="M 0,0 H 1562.5 V 1562.5 H 0 Z"
         transform="scale(0.31999999)"
         clip-rule="evenodd"
         id="path6" />
    </clipPath>
    <clipPath
       clipPathUnits="userSpaceOnUse"
       id="clipPath7">
      <path
         d="M 0,0 H 550 V 199 H 0 Z"
         transform="matrix(0.48093789,0,0,0.48093789,-0.17665705,-76.347028)"
         id="path7" />
    </clipPath>
    <clipPath
       clipPathUnits="userSpaceOnUse"
       id="clipPath8">
      <path
         d="M 0,0 H 713 V 199 H 0 Z"
         transform="matrix(0.31999999,0,0,0.31999999,241.59999,220.15999)"
         id="path8" />
    </clipPath>
    <clipPath
       clipPathUnits="userSpaceOnUse"
       id="clipPath9">
      <path
         d="M 0,0 H 204 V 199 H 0 Z"
         transform="matrix(0.48093789,0,0,0.48093789,-0.04520343,-76.347028)"
         id="path9" />
    </clipPath>
    <clipPath
       clipPathUnits="userSpaceOnUse"
       id="clipPath10">
      <path
         d="M 0,0 H 713 V 199 H 0 Z"
         transform="matrix(0.31999999,0,0,0.31999999,241.59999,220.15999)"
         id="path10" />
    </clipPath>
    <clipPath
       clipPathUnits="userSpaceOnUse"
       id="clipPath11">
      <path
         d="M 0,0 H 713 V 199 H 0 Z"
         transform="matrix(0,-0.50494324,0.50494324,0,-22.117271,226.08846)"
         id="path11" />
    </clipPath>
    <clipPath
       clipPathUnits="userSpaceOnUse"
       id="clipPath12">
      <path
         d="M 0,0 H 713 V 199 H 0 Z"
         transform="matrix(-0.33876549,-0.37444042,0.37444042,-0.33876549,153.46989,211.8438)"
         id="path12" />
    </clipPath>
    <clipPath
       clipPathUnits="userSpaceOnUse"
       id="clipPath13">
      <path
         d="M 0,0 H 713 V 199 H 0 Z"
         transform="matrix(-0.31655122,0.39339929,-0.39339929,-0.31655122,223.1424,-149.04271)"
         id="path13" />
    </clipPath>
    <clipPath
       clipPathUnits="userSpaceOnUse"
       id="clipPath14">
      <path
         d="M 0,0 H 28 V 15 H 0 Z"
         transform="matrix(9.4745583,9.4745583,-9.4745583,9.4745583,3.1867978,-5.9673874)"
         id="path14" />
    </clipPath>
    <clipPath
       clipPathUnits="userSpaceOnUse"
       id="clipPath15">
      <path
         d="M 527.76691,44.08353 514.25702,57.593399 500.14673,43.483093 Z"
         transform="matrix(0.31999999,0,0,0.31999999,241.59999,220.15999)"
         id="path15" />
    </clipPath>
    <clipPath
       clipPathUnits="userSpaceOnUse"
       id="clipPath16">
      <path
         d="M 0,0 H 28 V 15 H 0 Z"
         transform="matrix(-9.4745583,-9.4745583,9.4745583,-9.4745583,122.66906,401.22115)"
         id="path16" />
    </clipPath>
    <clipPath
       clipPathUnits="userSpaceOnUse"
       id="clipPath17">
      <path
         d="m 506.02704,159.09958 13.50989,-13.50987 14.11029,14.1103 z"
         transform="matrix(0.31999999,0,0,0.31999999,241.59999,220.15999)"
         id="path17" />
    </clipPath>
    <clipPath
       clipPathUnits="userSpaceOnUse"
       id="clipPath18">
      <path
         d="M 0,0 H 153 V 199 H 0 Z"
         transform="matrix(0.48093789,0,0,0.48093789,-0.14610002,-76.347028)"
         id="path18" />
    </clipPath>
    <clipPath
       clipPathUnits="userSpaceOnUse"
       id="clipPath19">
      <path
         d="M 0,0 H 713 V 199 H 0 Z"
         transform="matrix(0.31999999,0,0,0.31999999,241.59999,220.15999)"
         id="path19" />
    </clipPath>
    <clipPath
       clipPathUnits="userSpaceOnUse"
       id="clipPath30">
      <path
         d="M 0,0 H 1562.5 V 1562.5 H 0 Z"
         transform="scale(0.31999999)"
         clip-rule="evenodd"
         id="path30" />
    </clipPath>
  </defs>
  <sodipodi:namedview
     id="namedview1"
     pagecolor="#ffffff"
     bordercolor="#000000"
     borderopacity="0.25"
     inkscape:showpageshadow="2"
     inkscape:pageopacity="0.0"
     inkscape:pagecheckerboard="0"
     inkscape:deskcolor="#d1d1d1">
    <inkscape:page
       x="0"
       y="0"
       inkscape:label="1"
       id="page1"
       width="500"
       height="75"
       margin="0"
       bleed="0" />
  </sodipodi:namedview>
  <g
     id="g1"
     inkscape:groupmode="layer"
     inkscape:label="1">
    <g
       id="g5"
       clip-path="url(#clipPath6)">
      <path
         d="m 49.261527,-45.359946 h 25.14028 V 0.00246025 H 3.899121 V -90.749828 h 45.362406 z m 32.407607,-45.499785 h 75.173556 v 30.580472 H 138.0493 v 3.901551 h 18.79339 v 21.760767 H 138.0493 v 3.901551 h 18.79339 V -0.13491833 H 81.669134 Z M 156.98007,0.00246025 214.26694,-97.096718 271.58128,0.00246025 Z M 316.81318,0.13983882 H 271.45077 V -90.749828 h 45.36241 c 6.22324,0 12.07557,1.195194 17.55698,3.571843 5.49514,2.383518 10.33087,5.653129 14.50718,9.808831 4.19004,4.141964 7.45278,8.97769 9.78135,14.507177 2.3423,5.536357 3.51689,11.402422 3.51689,17.611934 0,6.230118 -1.17459,12.089315 -3.51689,17.584458 -2.32857,5.481405 -5.59131,10.317131 -9.78135,14.507178 -4.17631,4.1969151 -9.01204,7.4665252 -14.50718,9.80883 -5.48141,2.3285668 -11.33374,3.48941582 -17.55698,3.48941582 z m 0,0"
         style="fill:#5170ff;fill-opacity:1;fill-rule:nonzero;stroke:none"
         aria-label="LEAD"
         transform="matrix(0.56868401,0,0,0.56868401,33.751382,269.90485)"
         clip-path="url(#clipPath4)"
         id="path5" />
    </g>
    <g
       id="g30"
       clip-path="url(#clipPath30)">
      <g
         clip-path="url(#clipPath8)"
         id="g20">
        <path
           d="M 28.2978,-0.0025895 H 19.726397 L 0.70492742,-55.305752 H 10.732295 l 13.127162,39.96857 1.033265,3.287662 h 0.09393 l 1.080231,-3.240695 12.587047,-40.015537 h 7.162405 l 12.187831,39.311038 1.244614,3.945194 h 0.164384 l 1.479447,-4.109577 12.845363,-39.146655 h 9.862984 L 64.579493,-0.0025895 H 55.79674 L 42.129462,-41.427124 h -0.07045 z m 80.01933,1.5733808 c -3.80429,0 -7.32679,-0.75146543 -10.567482,-2.25439638 C 94.520695,-2.186536 91.696829,-4.2648077 89.272178,-6.9301618 86.85927,-9.6072576 84.974735,-12.712923 83.612704,-16.25303 c -1.362031,-3.551849 -2.043047,-7.350272 -2.043047,-11.389399 0,-4.050868 0.681016,-7.843421 2.043047,-11.365915 1.362031,-3.522495 3.246566,-6.62229 5.659474,-9.299385 2.424651,-2.677096 5.248517,-4.755368 8.47747,-6.246557 3.240692,-1.502931 6.739702,-2.254397 10.497032,-2.254397 3.33463,0 6.42268,0.540116 9.2759,1.620348 2.84735,1.080231 5.36594,2.624258 7.56162,4.626209 2.18982,2.007822 3.89823,4.385506 5.11936,7.138922 v -11.882548 h 8.94714 v 55.3031625 h -8.94714 V -11.767721 c -1.22113,2.7123209 -2.92954,5.0665213 -5.11936,7.0684723 -2.19568,2.0078218 -4.71427,3.5577193 -7.56162,4.64969261 -2.85322,1.08023159 -5.91779,1.62034739 -9.20545,1.62034739 z m 2.04305,-8.7357861 c 2.70645,0 5.24264,-0.5048909 7.60859,-1.5264142 2.37768,-1.0332651 4.45008,-2.477488 6.22307,-4.34441 1.76712,-1.861051 3.15263,-4.039127 4.15654,-6.528356 1.01566,-2.500971 1.52642,-5.195679 1.52642,-8.078254 0,-2.864962 -0.51076,-5.530316 -1.52642,-8.007804 -1.00391,-2.471617 -2.39529,-4.637951 -4.18002,-6.504873 -1.78473,-1.861051 -3.86301,-3.317015 -6.22308,-4.367893 -2.34833,-1.045007 -4.85517,-1.573381 -7.51465,-1.573381 -2.72406,0 -5.26026,0.504891 -7.60859,1.502931 -2.34833,0.986299 -4.432472,2.407038 -6.246557,4.250477 -1.802342,1.849309 -3.21134,4.009773 -4.226993,6.481389 -1.003911,2.477488 -1.502931,5.213292 -1.502931,8.219154 0,3.070441 0.516633,5.864953 1.549898,8.383537 1.033265,2.506842 2.442263,4.667305 4.226993,6.481389 1.784731,1.802343 3.85713,3.1878579 6.22307,4.1565439 2.37769,0.9745567 4.88453,1.4559643 7.51466,1.4559643 z m 0,0"
           style="fill:#ffb800;fill-opacity:1;fill-rule:nonzero;stroke:none"
           aria-label="wa"
           transform="matrix(0.66536656,0,0,0.66536656,280.75753,270.95875)"
           clip-path="url(#clipPath7)"
           id="path20" />
      </g>
      <g
         clip-path="url(#clipPath10)"
         id="g21">
        <path
           d="m 59.743996,-29.00446 c 0,0.469666 -0.01174,0.974557 -0.02348,1.502931 -0.01761,0.516632 -0.06458,1.28571 -0.1409,2.301363 h -45.86288 c 0.387474,3.681007 1.467706,6.874735 3.240695,9.581185 1.78473,2.71232 4.003902,4.802334 6.669256,6.2700397 2.677096,1.4559643 5.530316,2.1839465 8.571403,2.1839465 3.722102,0 6.904089,-0.7984321 9.534218,-2.3952962 2.641871,-1.608606 4.585114,-3.974548 5.823858,-7.091955 h 10.450066 c -0.798432,2.536196 -1.984338,4.908008 -3.545977,7.1154383 -1.56751,2.2074298 -3.463787,4.1330601 -5.682958,5.7768908 -2.225042,1.6438308 -4.720143,2.93541204 -7.491171,3.87474388 -2.771029,0.93933182 -5.724054,1.40899772 -8.853203,1.40899772 -4.027385,0 -7.743617,-0.75146543 -11.154566,-2.25439637 C 17.861538,-2.2335026 14.879159,-4.323516 12.331221,-7.0006117 9.7774131,-9.6777075 7.7989454,-12.777503 6.3899476,-16.299997 4.9809498,-19.822491 4.276451,-23.603302 4.276451,-27.642429 c 0,-4.050868 0.7044988,-7.843421 2.1134966,-11.365915 1.4089978,-3.522495 3.3874655,-6.62229 5.9412734,-9.299385 2.547938,-2.677096 5.530317,-4.77298 8.947136,-6.293524 3.410949,-1.514672 7.127181,-2.277879 11.154566,-2.277879 3.956935,0 7.614459,0.745594 10.966699,2.230913 3.34637,1.491189 6.234815,3.534236 8.665336,6.12914 2.442263,2.600775 4.326798,5.577283 5.659475,8.923652 1.344418,3.334628 2.019563,6.868864 2.019563,10.590967 z m -45.581077,-4.438343 h 36.046859 c -0.1409,-1.954984 -0.716241,-3.816036 -1.714281,-5.589025 -0.986298,-1.767118 -2.295492,-3.322886 -3.92171,-4.673175 -1.632089,-1.362032 -3.499011,-2.430522 -5.612508,-3.217212 -2.113496,-0.78082 -4.34441,-1.174165 -6.692739,-1.174165 -2.759287,0 -5.377675,0.563599 -7.866904,1.690798 -2.48923,1.115456 -4.643822,2.759287 -6.457907,4.931492 -1.802343,2.160463 -3.06457,4.837559 -3.78081,8.031287 z M 74.473894,-0.0025895 H 65.104059 V -55.305752 h 8.994102 v 12.375697 c 1.373773,-3.833648 3.522494,-6.857122 6.434423,-9.064552 2.911929,-2.20743 6.369844,-3.311145 10.379617,-3.311145 h 5.354191 v 8.195671 H 91.40535 c -3.228953,0 -6.123269,0.833657 -8.688819,2.489229 -2.571421,1.661443 -4.590985,4.06261 -6.058691,7.209372 -1.455964,3.146762 -2.183946,6.945185 -2.183946,11.389398 z m 0,0"
           style="fill:#ffb800;fill-opacity:1;fill-rule:nonzero;stroke:none"
           aria-label="      er"
           transform="matrix(0.66536656,0,0,0.66536656,404.51006,270.95875)"
           clip-path="url(#clipPath9)"
           id="path21" />
      </g>
      <path
         d="M 0,4.5 H 58.38464"
         style="fill:none;stroke:#ffb800;stroke-width:9;stroke-linecap:butt;stroke-linejoin:miter;stroke-miterlimit:10;stroke-dasharray:none;stroke-opacity:1"
         transform="matrix(0,0.63373457,-0.63373457,0,384.88006,234.17647)"
         clip-path="url(#clipPath11)"
         id="path22" />
      <path
         d="M 0,4.5 H 53.617908"
         style="fill:none;stroke:#ffb800;stroke-width:9;stroke-linecap:butt;stroke-linejoin:miter;stroke-miterlimit:10;stroke-dasharray:none;stroke-opacity:1"
         transform="matrix(-0.42517134,0.46994555,-0.46994555,-0.42517134,406.40604,238.10741)"
         clip-path="url(#clipPath12)"
         id="path23" />
      <path
         d="M 0,4.5 H 38.048939"
         style="fill:none;stroke:#ffb800;stroke-width:9;stroke-linecap:butt;stroke-linejoin:miter;stroke-miterlimit:10;stroke-dasharray:none;stroke-opacity:1"
         transform="matrix(-0.39729109,-0.4937401,0.4937401,-0.39729109,403.84084,271.121)"
         clip-path="url(#clipPath13)"
         id="path24" />
      <g
         clip-path="url(#clipPath15)"
         id="g26">
        <g
           id="g25">
          <path
             d="M 0,0 H 256 V 267 H 0 Z"
             style="fill:#ffb800;fill-opacity:1;fill-rule:nonzero;stroke:none"
             transform="matrix(0.01688733,-0.01688733,0.01688733,0.01688733,401.64694,234.07458)"
             clip-path="url(#clipPath14)"
             id="path25" />
        </g>
      </g>
      <g
         clip-path="url(#clipPath17)"
         id="g28">
        <g
           id="g27">
          <path
             d="M 0,0 H 256 V 267 H 0 Z"
             style="fill:#ffb800;fill-opacity:1;fill-rule:nonzero;stroke:none"
             transform="matrix(-0.01688733,0.01688733,-0.01688733,-0.01688733,412.36709,271.26399)"
             clip-path="url(#clipPath16)"
             id="path26" />
        </g>
      </g>
      <g
         clip-path="url(#clipPath19)"
         id="g29">
        <path
           d="M 72.32572,-0.0025895 H 62.133969 L 55.135947,-16.699213 H 17.891439 L 10.893417,-0.0025895 H 0.70166667 L 31.93445,-73.740139 h 9.205452 z M 36.161444,-60.237244 21.296517,-24.824433 h 30.410869 l -14.841443,-35.412811 -0.2818,-1.244615 h -0.09393 z m 0,0"
           style="fill:#ffb800;fill-opacity:1;fill-rule:nonzero;stroke:none"
           aria-label="A"
           transform="matrix(0.66536656,0,0,0.66536656,241.6972,270.95875)"
           clip-path="url(#clipPath18)"
           id="path28" />
      </g>
    </g>
    <g
       id="g31">
      <path
         id="path31"
         d="m 284.38464,179.65964 h 4.27771 v 27.75027 h -4.27771 z"
         style="fill:#000000;fill-opacity:0;fill-rule:nonzero;stroke:none"
         transform="matrix(1.3333333,0,0,-1.3333333,0,510.71997)" />
    </g>
    <g
       id="g32">
      <path
         id="path32"
         d="m 284.5382,185.5628 h 20.26973 v 21.76803 H 284.5382 Z"
         style="fill:#000000;fill-opacity:0;fill-rule:nonzero;stroke:none"
         transform="matrix(1.3333333,0,0,-1.3333333,0,510.71997)" />
    </g>
    <g
       id="g33">
      <path
         id="path33"
         d="m 291.54407,179.69884 h 14.67013 v 16.77143 h -14.67013 z"
         style="fill:#000000;fill-opacity:0;fill-rule:nonzero;stroke:none"
         transform="matrix(1.3333333,0,0,-1.3333333,0,510.71997)" />
    </g>
  </g>
</svg>
