<?xml version="1.0" encoding="UTF-8" standalone="no"?>
<!-- Created with Inkscape (http://www.inkscape.org/) -->

<svg
   version="1.1"
   id="svg1"
   width="440"
   height="320"
   viewBox="30 80 440 320"
   sodipodi:docname="page1_12564051218929177877.pdf"
   xmlns:inkscape="http://www.inkscape.org/namespaces/inkscape"
   xmlns:sodipodi="http://sodipodi.sourceforge.net/DTD/sodipodi-0.dtd"
   xmlns="http://www.w3.org/2000/svg"
   xmlns:svg="http://www.w3.org/2000/svg">
  <defs
     id="defs1">
    <clipPath
       clipPathUnits="userSpaceOnUse"
       id="clipPath2">
      <path
         d="M 0,0 H 1562.5 V 1562.5 H 0 Z"
         transform="scale(0.31999999)"
         clip-rule="evenodd"
         id="path2" />
    </clipPath>
    <clipPath
       clipPathUnits="userSpaceOnUse"
       id="clipPath4">
      <path
         d="m 774.66345,322.46164 296.77835,7.57471 -6.5382,256.16653 -296.77829,-7.57471 z"
         transform="matrix(0.42656998,-0.01088738,0.01088738,0.42656998,-334.45895,-129.42797)"
         id="path4" />
    </clipPath>
    <clipPath
       clipPathUnits="userSpaceOnUse"
       id="clipPath5">
      <path
         d="m 774.66345,322.46164 296.77835,7.57471 -6.5382,256.16653 -296.77829,-7.57471 z"
         transform="matrix(0.42656998,-0.01088738,0.01088738,0.42656998,-334.45895,-129.42797)"
         id="path5" />
    </clipPath>
    <clipPath
       clipPathUnits="userSpaceOnUse"
       id="clipPath6">
      <path
         d="m 774.66345,322.46164 296.77835,7.57471 -6.5382,256.16653 -296.77829,-7.57471 z"
         transform="matrix(0.42656998,-0.01088738,0.01088738,0.42656998,-334.45895,-129.42797)"
         id="path6" />
    </clipPath>
    <clipPath
       clipPathUnits="userSpaceOnUse"
       id="clipPath7">
      <path
         d="m 774.66345,322.46164 296.77835,7.57471 -6.5382,256.16653 -296.77829,-7.57471 z"
         transform="matrix(0.42656998,-0.01088738,0.01088738,0.42656998,-334.45895,-129.42797)"
         id="path7" />
    </clipPath>
    <clipPath
       clipPathUnits="userSpaceOnUse"
       id="clipPath8">
      <path
         d="m 774.66345,322.46164 296.77835,7.57471 -6.5382,256.16653 -296.77829,-7.57471 z"
         transform="matrix(0.42656998,-0.01088738,0.01088738,0.42656998,-334.45895,-129.42797)"
         id="path8" />
    </clipPath>
    <clipPath
       clipPathUnits="userSpaceOnUse"
       id="clipPath9">
      <path
         d="m 774.66345,322.46164 296.77835,7.57471 -6.5382,256.16653 -296.77829,-7.57471 z"
         transform="matrix(0.42656998,-0.01088738,0.01088738,0.42656998,-334.45895,-129.42797)"
         id="path9" />
    </clipPath>
    <clipPath
       clipPathUnits="userSpaceOnUse"
       id="clipPath10">
      <path
         d="M 0,0 H 1562.5 V 1562.5 H 0 Z"
         transform="scale(0.31999999)"
         id="path10" />
    </clipPath>
    <clipPath
       clipPathUnits="userSpaceOnUse"
       id="clipPath17">
      <path
         d="M 0,0 H 1562.5 V 1562.5 H 0 Z"
         transform="scale(0.31999999)"
         id="path17" />
    </clipPath>
    <clipPath
       clipPathUnits="userSpaceOnUse"
       id="clipPath18">
      <path
         d="M 0,0 H 1562.5 V 1562.5 H 0 Z"
         transform="scale(0.31999999)"
         clip-rule="evenodd"
         id="path18" />
    </clipPath>
  </defs>
  <sodipodi:namedview
     id="namedview1"
     pagecolor="#ffffff"
     bordercolor="#000000"
     borderopacity="0.25"
     inkscape:showpageshadow="2"
     inkscape:pageopacity="0.0"
     inkscape:pagecheckerboard="0"
     inkscape:deskcolor="#d1d1d1">
    <inkscape:page
       x="0"
       y="0"
       inkscape:label="1"
       id="page1"
       width="500"
       height="500"
       margin="0"
       bleed="0" />
  </sodipodi:namedview>
  <g
     id="g1"
     inkscape:groupmode="layer"
     inkscape:label="1">
    <g
       id="g2"
       clip-path="url(#clipPath18)">
      <g
         id="g17"
         clip-path="url(#clipPath17)">
        <g
           clip-path="url(#clipPath10)"
           id="g16">
          <path
             d="M 86.199997,19.700001 C 85.299995,43.599998 84.399994,46.599998 81.5,70.300003 c -0.800003,6.300003 -1.699997,12.5 -2.699997,18.800003 -0.400001,2.699997 -1.599998,3.599999 -4.199997,3.400002 -2.5,-0.199997 -3.400001,-1 -3.199997,-4 0.800003,-10.5 1.300003,-21.099999 2.599999,-31.599999 2.800003,-23.400001 3.300003,-26.1 6.400001,-49.4000014 0.199997,-1.1999998 0.400002,-2.5 0.599999,-3.7 C 81.300011,1.9000075 81.400009,-0.19999242 84.200005,7.6293945e-6 86.900002,0.30000764 86.600006,2.5000076 86.600006,4.2000074 c 0.1,4.1999998 -0.1,8.3000006 -0.199997,12.5000006 -0.100006,0.999993 -0.200012,1.999993 -0.200012,2.999993 z"
             style="fill:#ffd360;fill-opacity:1;fill-rule:nonzero;stroke:none"
             transform="matrix(0.7496816,0.01913419,-0.01913419,0.7496816,248.26122,103.42937)"
             clip-path="url(#clipPath4)"
             id="path11" />
          <path
             d="m 97.5,97.400002 c -3.300003,0 -4.199997,-1 -2.900002,-3.699997 C 99.199997,84.000008 103.8,74.400009 108.7,64.800003 c 1.4,-2.799999 3.4,-5.5 7.19999,-5.299999 2.6,0.1 3.30001,0.799999 2.30001,3.200001 -3.6,8 -7.4,16 -11.2,23.900001 -1.3,2.699997 -3,5.199997 -4.6,7.699997 -1.2,1.899994 -2.700003,3.199997 -4.9,3.099999 z"
             style="fill:#ffd360;fill-opacity:1;fill-rule:nonzero;stroke:none"
             transform="matrix(0.7496816,0.01913419,-0.01913419,0.7496816,248.26122,103.42937)"
             clip-path="url(#clipPath5)"
             id="path12" />
          <path
             d="M 27.5,94.400002 C 25.5,97 24.200001,97.099998 22.799999,94.5 17.799999,85 12.9,75.5 8.1999989,65.800003 c -1.4000001,-2.799999 -2.3000002,-6 0.1000003,-8.900001 1.6999998,-2 2.6999998,-2.200001 3.8999998,0.1 C 16.399998,64.699997 20.5,72.5 24.5,80.400002 26,83 27,85.800003 28,88.599998 c 0.799999,2.099999 0.9,4.099999 -0.5,5.800004 z"
             style="fill:#ffd360;fill-opacity:1;fill-rule:nonzero;stroke:none"
             transform="matrix(0.7496816,0.01913419,-0.01913419,0.7496816,248.26122,103.42937)"
             clip-path="url(#clipPath6)"
             id="path13" />
          <path
             d="m 110.3,104.7 c -0.3,-0.30001 -0.4,-0.9 0,-1.2 2.30001,-2.5 4.40001,-4.800003 6.7,-7 1.8,-1.800003 5.9,-1.900002 7.9,-0.300003 0.5,0.400001 0.80001,2.099998 0.5,2.400001 -3,2.600002 -5.9,5.300002 -9.3,7.300002 -1.8,1.1 -4,0.6 -5.8,-1.2 z"
             style="fill:#ffd360;fill-opacity:1;fill-rule:nonzero;stroke:none"
             transform="matrix(0.7496816,0.01913419,-0.01913419,0.7496816,248.26122,103.42937)"
             clip-path="url(#clipPath7)"
             id="path14" />
          <path
             d="m 9,108.5 c -0.3000002,0.3 -0.8999996,0.3 -1.1999998,0 -2.3000002,-2.4 -4.5999999,-4.7 -6.5999999,-7 -1.70000006,-1.900002 -1.60000004,-6 0.1,-7.900002 0.5,-0.5 2.0999998,-0.699996 2.4,-0.400001 C 6.1000004,96.299995 8.7000008,99.399994 10.5,102.89999 11.5,104.6 10.9,106.8 9,108.5 Z"
             style="fill:#ffd360;fill-opacity:1;fill-rule:nonzero;stroke:none"
             transform="matrix(0.7496816,0.01913419,-0.01913419,0.7496816,248.26122,103.42937)"
             clip-path="url(#clipPath8)"
             id="path15" />
          <path
             d="M 53,82.699997 C 51.599998,66.5 51.5,60.899998 49.900002,44.699997 49.299999,38.599998 48,32.599998 47,26.5 c -0.700001,-4.1 -7,-3.200001 -7,1 0,5.099998 0.200001,10.299999 0.5,15.400002 0.700001,13.299999 0.400002,16.099998 2.099998,29.299995 0.1,0.5 0.1,1.099998 0.200001,1.900001 1,6 2.400002,11.800004 4.599999,12.900002 0.2,0.1 0.299999,0.1 0.5,0.199997 3.7,0.800003 5.400001,-0.599999 5.100002,-4.5 z"
             style="fill:#ffd360;fill-opacity:1;fill-rule:nonzero;stroke:none"
             transform="matrix(0.7496816,0.01913419,-0.01913419,0.7496816,248.26122,103.42937)"
             clip-path="url(#clipPath9)"
             id="path16" />
        </g>
      </g>
    </g>
    <g
       id="g18">
      <path
         id="path19"
         d="m 184.35179,242.42326 h 72.52999 v 63.22599 h -72.52999 z"
         style="fill:#000000;fill-opacity:0;fill-rule:nonzero;stroke:none"
         transform="matrix(1.3333333,0,0,-1.3333333,0,510.71997)" />
    </g>
  </g>
</svg>
