<?xml version="1.0" encoding="UTF-8" standalone="no"?>
<!-- Created with Inkscape (http://www.inkscape.org/) -->

<svg
   version="1.1"
   id="svg1"
   width="440"
   height="320"
   viewBox="30 80 440 320"
   sodipodi:docname="page2_8310954833017873938.pdf"
   xmlns:inkscape="http://www.inkscape.org/namespaces/inkscape"
   xmlns:sodipodi="http://sodipodi.sourceforge.net/DTD/sodipodi-0.dtd"
   xmlns="http://www.w3.org/2000/svg"
   xmlns:svg="http://www.w3.org/2000/svg">
  <defs
     id="defs1">
    <clipPath
       clipPathUnits="userSpaceOnUse"
       id="clipPath2">
      <path
         d="M 0,0 H 1562.5 V 1562.5 H 0 Z"
         transform="scale(0.31999999)"
         clip-rule="evenodd"
         id="path2" />
    </clipPath>
    <clipPath
       clipPathUnits="userSpaceOnUse"
       id="clipPath4">
      <path
         d="m 751.13727,515.16302 299.79793,-11.00881 12.1556,331.02688 -299.79795,11.00885 z"
         transform="matrix(1.1344164,0.04165669,-0.04165669,1.1344164,-949.56826,-673.40226)"
         id="path4" />
    </clipPath>
    <clipPath
       clipPathUnits="userSpaceOnUse"
       id="clipPath5">
      <path
         d="M 0,0 H 1562.5 V 1562.5 H 0 Z"
         transform="scale(0.31999999)"
         id="path5" />
    </clipPath>
    <clipPath
       clipPathUnits="userSpaceOnUse"
       id="clipPath7">
      <path
         d="M 0,0 H 1562.5 V 1562.5 H 0 Z"
         transform="scale(0.31999999)"
         id="path7" />
    </clipPath>
    <clipPath
       clipPathUnits="userSpaceOnUse"
       id="clipPath8">
      <path
         d="M 0,0 H 1562.5 V 1562.5 H 0 Z"
         transform="scale(0.31999999)"
         clip-rule="evenodd"
         id="path8" />
    </clipPath>
    <clipPath
       clipPathUnits="userSpaceOnUse"
       id="clipPath10">
      <path
         d="M 0,0 H 1562.5 V 1562.5 H 0 Z"
         transform="matrix(1.1344164,0.04165669,-0.04165669,1.1344164,-1050.4354,-839.90232)"
         clip-rule="evenodd"
         id="path10" />
    </clipPath>
    <clipPath
       clipPathUnits="userSpaceOnUse"
       id="clipPath12">
      <path
         d="M 714.22437,504.17142 H 1098.5994 V 926.04639 H 714.22437 Z"
         transform="matrix(11.291253,0,0,-11.291253,-8064.4882,10436.481)"
         clip-rule="evenodd"
         id="path12" />
    </clipPath>
    <clipPath
       clipPathUnits="userSpaceOnUse"
       id="clipPath14">
      <path
         d="M 714.22437,504.17142 H 1098.5994 V 926.04639 H 714.22437 Z"
         transform="matrix(11.291253,0,0,-11.291253,-8064.4882,10436.481)"
         clip-rule="evenodd"
         id="path14" />
    </clipPath>
  </defs>
  <sodipodi:namedview
     id="namedview1"
     pagecolor="#ffffff"
     bordercolor="#000000"
     borderopacity="0.25"
     inkscape:showpageshadow="2"
     inkscape:pageopacity="0.0"
     inkscape:pagecheckerboard="0"
     inkscape:deskcolor="#d1d1d1">
    <inkscape:page
       x="0"
       y="0"
       inkscape:label="1"
       id="page1"
       width="500"
       height="500"
       margin="0"
       bleed="0" />
  </sodipodi:namedview>
  <g
     id="g1"
     inkscape:groupmode="layer"
     inkscape:label="1">
    <g
       id="g2"
       clip-path="url(#clipPath8)">
      <g
         id="g7"
         clip-path="url(#clipPath7)">
        <g
           clip-path="url(#clipPath5)"
           id="g6">
          <path
             d="m 0,0 c 11.48269,5.7031546 15.736339,20.669762 20.261719,31.6875 0.888761,2.153877 1.778055,4.307537 2.667969,6.460938 0.38825,0.944076 0.776498,1.888153 1.176513,2.860839 0.611138,1.45409 1.262629,2.892445 1.968018,4.303223 2.348938,0.112823 2.348938,0.112823 5,-1 1.968487,-2.416332 3.352802,-5.130127 4.8125,-7.875 0.86919,-1.55851 1.742916,-3.114506 2.621094,-4.667969 0.64558,-1.143478 0.64558,-1.143478 1.304199,-2.310058 2.263679,-3.850447 4.903736,-7.369608 7.605957,-10.924317 1.799041,-2.323932 1.799041,-2.323932 3.53125,-5.472656 3.283684,-4.2494736 7.652145,-6.8527246 12.125,-9.75 0.989998,-0.6599998 1.980003,-1.3199999 3,-2 4.07872,-0.33182794 8.321335,-0.1974233 11.730469,2.234375 5.394935,6.1385202 4.671195,14.073811 4.269531,21.765625 -0.43319,2.825558 -1.140541,5.240694 -2,8 -0.274567,1.057674 -0.274567,1.057674 -0.554688,2.136719 -1.573982,5.567234 -4.207504,9.568538 -7.617187,14.203125 -3.163079,4.60268 -5.426155,9.632038 -7.828125,14.660156 -0.996876,1.980743 -1.996876,3.959915 -3,5.9375 -2.121147,4.23674 -4.148308,8.506493 -6.125,12.8125 -0.957794,2.08358 -1.916085,4.166931 -2.875,6.25 -0.394455,0.857224 -0.788906,1.714455 -1.195313,2.597656 -0.872337,1.831902 -1.828212,3.623764 -2.804687,5.402344 -0.66,0 -1.32,0 -2,0 -0.363514,1.125351 -0.363514,1.125351 -0.734375,2.273438 -2.777313,5.983222 -10.230374,10.478132 -16.265625,12.726562 -7.075527,1.84477 -13.933414,2.06838 -21.1875002,1.9375 -10.8597432,-0.18524 -20.9922618,1.56017 -31.4999998,4.25 -13.566693,3.11066 -28.421704,0.60099 -40.851563,-5.16406 -2.478393,-1.21543 -2.478393,-1.21543 -5.460937,-1.02344 0,-0.66 0,-1.32 0,-2 -0.680626,-0.18562 -1.361252,-0.37125 -2.0625,-0.5625 -5.867462,-2.87132 -9.807732,-7.06292 -12,-13.25 -1.289421,-5.36171 -1.275833,-10.126923 1.0625,-15.1875 4.523262,-5.313736 10.201385,-7.186234 17,-8 6.056606,-0.266273 12.128288,-0.101135 18.1875,0 3.222645,0.05344 6.445045,0.09327 9.667968,0.125 0.728257,0.01659 1.456509,0.0332 2.206833,0.05029 5.367093,0.05129 9.686558,-0.67453 14.187699,-3.675293 3.345884,-4.779831 4.173441,-10.817413 3.4375,-16.5625 -0.38567,-2.811459 -0.38567,-2.811459 -1.6875,-3.9375 -0.474234,-3.941097 -0.713473,-7.90152 -0.984864,-11.861328 C -21.04784,35.47976 -21.199543,33.509381 -21.351563,31.53906 -22.902655,9.4191504 -22.902655,9.4191504 -15.925781,1.3125 -11.209875,-3.0104144 -5.6743627,-2.0257361 0,0 Z"
             style="fill:#ffcb44;fill-opacity:1;fill-rule:nonzero;stroke:none"
             transform="matrix(0.2817035,-0.01034438,0.01034438,0.2817035,274.46263,179.87708)"
             clip-path="url(#clipPath4)"
             id="path6" />
        </g>
      </g>
    </g>
    <path
       id="path9"
       d="m 0,0 c 3.7208791,0.9426831 5.3223252,2.2444263 8.1445313,4.8125 11.1473767,9.418639 22.7530207,15.021212 36.4987797,19.818359 11.111446,3.904988 20.73841,8.363205 26.56372,19.181641 1.936409,7.205544 0.38414,11.769833 -3.246093,18.210938 -2.422356,4.097152 -2.422356,4.097152 -3.753907,5.789062 -0.66,0 -1.319999,0 -2,0 -0.257652,0.744919 -0.515304,1.489838 -0.780761,2.257324 C 57.891335,78.02166 49.402336,83.118332 42.332031,87.6875 41.498009,88.254684 40.663986,88.821877 39.804688,89.40625 29.781786,95.943596 18.44828,97.371605 6.6601563,95.382813 -1.5593053,93.087029 -7.6915402,87.211174 -11.832031,79.875 -20.9063,60.398521 -16.400038,29.465528 -9.7929688,9.8125 c 1.152977,-2.6341429 2.3317452,-4.6321545 4,-7 0.4537502,-0.6600001 0.9074998,-1.3199999 1.375,-2 1.625,-1 1.625,-1 4.4179688,-0.8125 z"
       style="fill:#ffcb44;fill-opacity:1;fill-rule:nonzero;stroke:none"
       transform="matrix(0.2817035,-0.01034438,0.01034438,0.2817035,304.5996,225.73732)"
       clip-path="url(#clipPath10)" />
    <path
       id="path11"
       d="m 1985,4334 c -127,-66 -248,-328 -268,-579 -5,-66 -12,-127 -15,-137 -6,-14 -17,-8 -72,33 -36,27 -82,63 -104,81 -21,18 -45,37 -54,42 -9,5 -26,18 -37,29 -11,10 -32,25 -47,33 -16,8 -28,19 -28,23 0,5 -17,15 -37,22 -21,7 -48,19 -60,26 -12,8 -49,17 -81,20 -168,15 -212,-113 -125,-361 23,-66 46,-122 50,-125 4,-3 23,-38 42,-78 19,-40 40,-74 48,-77 23,-9 15,-36 -11,-36 -14,0 -28,-4 -31,-10 -3,-5 -17,-10 -30,-10 -65,0 -238,-91 -251,-132 -4,-12 -19,-35 -35,-51 -49,-49 -61,-125 -30,-194 15,-31 37,-53 96,-93 66,-44 89,-54 157,-66 91,-16 221,-10 308,13 83,23 191,62 225,82 16,11 41,22 55,26 14,4 50,25 80,45 30,20 75,47 100,60 42,22 44,22 30,2 -8,-11 -40,-49 -71,-84 -75,-85 -114,-150 -149,-247 -51,-139 -83,-381 -80,-601 1,-63 2,-122 2,-130 0,-8 7,-71 14,-139 10,-85 11,-128 4,-136 -6,-7 -11,-45 -12,-84 0,-39 -3,-69 -6,-66 -7,6 -24,-27 -47,-93 -11,-29 -29,-59 -42,-67 -13,-9 -23,-22 -23,-30 0,-19 -57,-78 -98,-101 -29,-16 -41,-35 -48,-71 -4,-24 42,-53 92,-56 38,-3 60,2 97,21 26,14 47,31 47,39 0,7 4,13 9,13 18,0 67,56 91,105 14,28 33,59 43,71 9,11 24,50 31,87 8,36 17,70 20,75 3,5 10,53 16,106 9,73 8,101 0,111 -8,10 -12,85 -12,247 0,518 44,678 239,882 32,33 91,98 132,143 l 73,82 51,-19 c 34,-13 67,-35 95,-66 44,-48 52,-74 27,-94 -26,-21 -117,-172 -160,-264 -76,-163 -106,-274 -112,-416 -9,-220 40,-353 173,-461 88,-71 135,-89 259,-100 110,-10 247,6 320,37 l 39,16 26,-29 c 25,-30 50,-69 83,-130 9,-18 21,-33 25,-33 4,0 16,-20 27,-45 11,-25 23,-45 26,-45 4,0 9,-17 12,-38 6,-37 55,-144 70,-150 4,-2 7,-11 7,-19 0,-9 14,-45 30,-80 17,-35 27,-69 24,-75 -4,-6 -3,-8 4,-4 10,6 12,-14 14,-126 1,-49 -16,-124 -33,-150 -11,-14 -19,-34 -19,-43 0,-9 -16,-44 -35,-76 -43,-75 -46,-105 -7,-112 15,-3 31,-1 36,4 6,5 24,9 41,9 27,0 34,7 60,55 17,30 33,55 36,55 6,0 9,9 18,45 1,3 10,25 21,50 11,25 19,46 19,48 -1,1 6,28 16,59 11,40 15,80 11,135 -4,74 -40,211 -58,224 -5,3 -6,13 -2,22 3,10 1,17 -5,17 -6,0 -11,8 -11,18 0,26 -88,192 -101,192 -3,0 -14,20 -25,45 -10,25 -22,45 -26,45 -4,0 -8,6 -8,14 0,7 -16,34 -35,59 -19,25 -35,50 -35,56 0,5 -8,12 -18,15 -29,10 -48,52 -32,71 7,8 18,15 24,15 11,0 136,119 176,166 33,40 52,135 30,149 -6,4 -17,21 -24,40 -8,18 -27,42 -43,52 -28,18 -64,46 -89,71 -7,6 -16,12 -21,12 -15,0 -107,52 -188,107 -95,64 -155,127 -234,243 -50,73 -121,199 -121,214 0,10 128,96 144,96 22,0 21,-6 -19,-78 -30,-56 -33,-70 -28,-113 3,-30 11,-49 18,-49 7,0 15,-7 19,-15 3,-9 18,-15 35,-15 31,0 54,24 79,82 18,44 80,105 139,139 30,17 59,42 65,54 14,32 3,72 -25,86 -12,7 -28,20 -35,30 -6,9 -36,25 -65,35 -103,34 -244,11 -344,-56 -25,-17 -48,-32 -53,-33 -4,-1 -43,27 -86,63 -44,36 -91,73 -106,83 l -26,16 28,53 c 46,87 70,218 80,443 6,126 6,203 0,209 -6,6 -10,31 -10,57 0,53 -46,242 -61,247 -5,2 -9,9 -9,15 0,20 -73,122 -110,154 -80,68 -123,79 -185,47 z m 129,-206 c 9,-29 21,-62 26,-73 10,-22 38,-159 39,-190 0,-11 2,-69 4,-130 8,-252 -19,-413 -88,-530 -25,-44 -51,-55 -131,-55 -73,0 -234,-71 -376,-167 -154,-103 -341,-152 -520,-137 -93,8 -114,20 -104,59 7,29 71,95 91,95 6,0 22,11 35,25 13,14 34,25 46,25 13,0 35,5 51,11 15,6 64,14 108,19 151,16 193,67 122,147 -18,21 -41,55 -52,76 -11,20 -23,37 -28,37 -4,0 -15,15 -23,33 -8,17 -23,43 -34,57 -46,58 -113,282 -96,325 11,29 70,18 137,-27 35,-23 66,-45 69,-48 3,-4 52,-44 110,-90 58,-46 128,-105 155,-132 103,-99 147,-117 200,-82 25,16 25,18 20,123 -2,58 0,131 5,161 5,30 14,89 20,130 14,100 37,170 83,260 36,69 85,130 106,130 5,0 16,-24 25,-52 z m 385,-1556 c 22,-38 55,-88 73,-112 44,-57 199,-210 213,-210 6,0 18,-8 27,-17 21,-24 94,-76 139,-101 69,-39 83,-47 97,-59 7,-7 18,-13 23,-13 13,0 -42,-79 -71,-103 -12,-10 -45,-35 -73,-55 -29,-20 -54,-39 -57,-43 -11,-14 -167,-88 -208,-99 -136,-35 -273,-30 -326,11 -69,54 -107,258 -78,414 13,73 92,291 117,325 6,8 21,35 34,60 24,45 41,70 47,70 2,0 21,-31 43,-68 z"
       style="fill:#071a72;fill-opacity:1;fill-rule:nonzero;stroke:none"
       transform="matrix(0.02834052,0,0,-0.02834052,228.55179,295.7753)"
       clip-path="url(#clipPath12)" />
    <path
       id="path13"
       d="m 1989,2707 c -66,-45 -80,-125 -30,-175 53,-52 122,-51 171,5 36,40 39,83 10,130 -34,57 -100,74 -151,40 z"
       style="fill:#071a72;fill-opacity:1;fill-rule:nonzero;stroke:none"
       transform="matrix(0.02834052,0,0,-0.02834052,228.55179,295.7753)"
       clip-path="url(#clipPath14)" />
    <g
       id="g14">
      <path
         id="path15"
         d="m 171.41383,161.12727 h 92.4717 v 100.91158 h -92.4717 z"
         style="fill:#000000;fill-opacity:0;fill-rule:nonzero;stroke:none"
         transform="matrix(1.3333333,0,0,-1.3333333,0,510.71997)" />
    </g>
    <g
       id="g15">
      <path
         id="path16"
         d="m 180.27287,180.16109 h 74.75364 v 81.87775 h -74.75364 z"
         style="fill:#000000;fill-opacity:0;fill-rule:nonzero;stroke:none"
         transform="matrix(1.3333333,0,0,-1.3333333,0,510.71997)" />
    </g>
  </g>
</svg>
