<?xml version="1.0" encoding="UTF-8" standalone="no"?>
<!-- Created with Inkscape (http://www.inkscape.org/) -->

<svg
   version="1.1"
   id="svg1"
   width="440"
   height="320"
   viewBox="30 80 440 320"
   sodipodi:docname="page3_17501512732206547606.pdf"
   xmlns:inkscape="http://www.inkscape.org/namespaces/inkscape"
   xmlns:sodipodi="http://sodipodi.sourceforge.net/DTD/sodipodi-0.dtd"
   xmlns="http://www.w3.org/2000/svg"
   xmlns:svg="http://www.w3.org/2000/svg">
  <defs
     id="defs1">
    <clipPath
       clipPathUnits="userSpaceOnUse"
       id="clipPath4">
      <path
         d="M 0,0 H 966 V 348 H 0 Z"
         transform="matrix(0.27350169,0,0,0.27350169,-0.11301197,-76.003141)"
         id="path4" />
    </clipPath>
    <clipPath
       clipPathUnits="userSpaceOnUse"
       id="clipPath5">
      <path
         d="M 0,0 H 1254 V 348 H 0 Z"
         transform="matrix(0.31999999,0,0,0.31999999,57.279998,257.91999)"
         id="path5" />
    </clipPath>
    <clipPath
       clipPathUnits="userSpaceOnUse"
       id="clipPath6">
      <path
         d="M 0,0 H 359 V 348 H 0 Z"
         transform="matrix(0.27350169,0,0,0.27350169,-0.12336151,-76.003141)"
         id="path6" />
    </clipPath>
    <clipPath
       clipPathUnits="userSpaceOnUse"
       id="clipPath7">
      <path
         d="M 0,0 H 1254 V 348 H 0 Z"
         transform="matrix(0.31999999,0,0,0.31999999,57.279998,257.91999)"
         id="path7" />
    </clipPath>
    <clipPath
       clipPathUnits="userSpaceOnUse"
       id="clipPath8">
      <path
         d="M 0,0 H 1254 V 348 H 0 Z"
         transform="matrix(0,-0.28715314,0.28715314,0,-21.756231,226.15646)"
         id="path8" />
    </clipPath>
    <clipPath
       clipPathUnits="userSpaceOnUse"
       id="clipPath9">
      <path
         d="M 0,0 H 1254 V 348 H 0 Z"
         transform="matrix(-0.19265053,-0.21293827,0.21293827,-0.19265053,153.78331,211.65201)"
         id="path9" />
    </clipPath>
    <clipPath
       clipPathUnits="userSpaceOnUse"
       id="clipPath10">
      <path
         d="M 0,0 H 1254 V 348 H 0 Z"
         transform="matrix(-0.18001761,0.2237199,-0.2237199,-0.18001761,222.90375,-149.32204)"
         id="path10" />
    </clipPath>
    <clipPath
       clipPathUnits="userSpaceOnUse"
       id="clipPath11">
      <path
         d="M 0,0 H 50 V 26 H 0 Z"
         transform="matrix(5.3880288,5.3880288,-5.3880288,5.3880288,-2.7614046,-4.9732493)"
         id="path11" />
    </clipPath>
    <clipPath
       clipPathUnits="userSpaceOnUse"
       id="clipPath12">
      <path
         d="M 928.28638,76.261101 904.52997,100.01746 879.71777,75.205261 Z"
         transform="matrix(0.31999999,0,0,0.31999999,57.279998,257.91999)"
         id="path12" />
    </clipPath>
    <clipPath
       clipPathUnits="userSpaceOnUse"
       id="clipPath13">
      <path
         d="M 0,0 H 49 V 26 H 0 Z"
         transform="matrix(-5.3880288,-5.3880288,5.3880288,-5.3880288,124.24879,399.75401)"
         id="path13" />
    </clipPath>
    <clipPath
       clipPathUnits="userSpaceOnUse"
       id="clipPath14">
      <path
         d="m 890.05798,278.51056 23.75641,-23.75636 24.8122,24.81221 z"
         transform="matrix(0.31999999,0,0,0.31999999,57.279998,257.91999)"
         id="path14" />
    </clipPath>
    <clipPath
       clipPathUnits="userSpaceOnUse"
       id="clipPath15">
      <path
         d="M 0,0 H 268 V 348 H 0 Z"
         transform="matrix(0.27350169,0,0,0.27350169,-0.21087271,-76.003141)"
         id="path15" />
    </clipPath>
    <clipPath
       clipPathUnits="userSpaceOnUse"
       id="clipPath16">
      <path
         d="M 0,0 H 1254 V 348 H 0 Z"
         transform="matrix(0.31999999,0,0,0.31999999,57.279998,257.91999)"
         id="path16" />
    </clipPath>
    <clipPath
       clipPathUnits="userSpaceOnUse"
       id="clipPath27">
      <path
         d="M 0,0 H 1562.5 V 1562.5 H 0 Z"
         transform="scale(0.31999999)"
         clip-rule="evenodd"
         id="path27" />
    </clipPath>
  </defs>
  <sodipodi:namedview
     id="namedview1"
     pagecolor="#ffffff"
     bordercolor="#000000"
     borderopacity="0.25"
     inkscape:showpageshadow="2"
     inkscape:pageopacity="0.0"
     inkscape:pagecheckerboard="0"
     inkscape:deskcolor="#d1d1d1">
    <inkscape:page
       x="0"
       y="0"
       inkscape:label="1"
       id="page1"
       width="500"
       height="500"
       margin="0"
       bleed="0" />
  </sodipodi:namedview>
  <g
     id="g1"
     inkscape:groupmode="layer"
     inkscape:label="1">

    <g
       id="g27"
       clip-path="url(#clipPath27)">
      <g
         clip-path="url(#clipPath5)"
         id="g17">
        <path
           d="M 28.297247,-6.4116673e-4 H 19.736965 L 0.70669522,-55.288582 H 10.735981 l 13.114193,39.943534 1.028302,3.311935 h 0.106837 l 1.08172,-3.258517 12.58001,-39.996952 h 7.158052 l 12.192727,39.302515 1.25533,3.952954 h 0.160255 l 1.455649,-4.126564 12.847101,-39.128905 h 9.869031 L 64.554918,-6.4116673e-4 H 55.780963 L 42.119232,-41.413178 h -0.05342 z M 108.30784,1.5751987 c -3.79269,0 -7.31162,-0.75119486 -10.550109,-2.24356862 -3.231808,-1.50238968 -6.059639,-3.59238068 -8.480156,-6.26329568 -2.423855,-2.6775923 -4.310189,-5.7892084 -5.662339,-9.3348484 -1.35549,-3.542301 -2.029896,-7.335 -2.029896,-11.378097 0,-4.049775 0.674406,-7.832459 2.029896,-11.351389 1.35215,-3.525608 3.238484,-6.623869 5.662339,-9.294784 2.420517,-2.677593 5.248348,-4.767584 8.480156,-6.263296 3.238489,-1.50239 6.737379,-2.256923 10.496699,-2.256923 3.31861,0 6.41019,0.544199 9.26807,1.629258 2.85788,1.088398 5.37522,2.630851 7.55869,4.634037 2.19015,2.003187 3.89954,4.380301 5.12816,7.131343 v -11.872217 h 8.93421 V -6.4116673e-4 h -8.93421 V -11.766022 c -1.22862,2.7176562 -2.93801,5.0747387 -5.12816,7.077925 -2.18347,2.0031863 -4.70081,3.5489783 -7.55869,4.63403753 -2.85788,1.08505927 -5.92943,1.62925817 -9.21466,1.62925817 z m 2.05661,-8.7338921 c 2.7043,0 5.24167,-0.5108125 7.61211,-1.5357761 2.3671,-1.0316409 4.43705,-2.4772735 6.20987,-4.3402365 1.76949,-1.859625 3.15836,-4.036421 4.16663,-6.530388 1.01495,-2.490628 1.52242,-5.184913 1.52242,-8.079517 0,-2.85788 -0.50747,-5.522117 -1.52242,-7.999391 -1.00827,-2.473935 -2.40382,-4.640715 -4.19333,-6.503678 -1.78952,-1.859625 -3.85948,-3.311935 -6.20988,-4.353591 -2.35041,-1.048335 -4.86107,-1.57584 -7.53198,-1.57584 -2.70764,0 -5.235,0.500796 -7.5854,1.495712 -2.35041,0.988239 -4.430381,2.403824 -6.236587,4.246755 -1.809545,1.842931 -3.218453,4.003034 -4.233401,6.476969 -1.00827,2.477274 -1.509067,5.214961 -1.509067,8.213064 0,3.071552 0.510813,5.862658 1.535776,8.373318 1.031641,2.51066 2.443888,4.670763 4.233401,6.476969 1.789513,1.809545 3.866148,3.2017593 6.236588,4.1799819 2.3671,0.9715454 4.86774,1.4556487 7.50527,1.4556487 z m 0,0"
           style="fill:#ffb800;fill-opacity:1;fill-rule:nonzero;stroke:none"
           aria-label="wa"
           transform="matrix(1.170011,0,0,1.170011,126.21222,346.8445)"
           clip-path="url(#clipPath4)"
           id="path17" />
      </g>
      <g
         clip-path="url(#clipPath7)"
         id="g18">
        <path
           d="m 59.734926,-29.006778 c 0,0.474087 -0.01002,0.971545 -0.02671,1.495712 -0.02003,0.527506 -0.06343,1.295394 -0.133546,2.310342 H 13.71506 c 0.400637,3.685862 1.482357,6.884283 3.245161,9.588585 1.769482,2.70764 3.993018,4.794292 6.663933,6.2632953 2.677593,1.462326 5.535472,2.1901503 8.573637,2.1901503 3.71925,0 6.897638,-0.8012745 9.535167,-2.4038235 2.644206,-1.6092261 4.580619,-3.9696471 5.80924,-7.0779251 H 57.99883 c -0.794597,2.530692 -1.976477,4.897791 -3.552317,7.1046343 -1.569162,2.2001662 -3.465512,4.123225 -5.689048,5.7691764 -2.21686,1.64929 -4.710827,2.94134512 -7.478562,3.87282673 -2.771075,0.94149757 -5.725775,1.41558497 -8.867438,1.41558497 -4.006373,0 -7.718945,-0.75119486 -11.137716,-2.24356862 C 17.861656,-2.2241779 14.880247,-4.3141689 12.326185,-6.9850839 9.7787997,-9.6626762 7.8023225,-12.767615 6.3967535,-16.293223 4.9878459,-19.818831 4.2867307,-23.601514 4.2867307,-27.644611 c 0,-4.049775 0.7011152,-7.832459 2.1100228,-11.351389 1.405569,-3.525608 3.3820462,-6.623869 5.9294315,-9.294784 2.554062,-2.677593 5.535471,-4.774261 8.947565,-6.290005 3.418771,-1.522422 7.131343,-2.283633 11.137716,-2.283633 3.979663,0 7.638817,0.744518 10.97746,2.230214 3.345321,1.47902 6.239926,3.518931 8.680474,6.116396 2.43721,2.600803 4.326882,5.575535 5.66234,8.920856 1.335457,3.338644 2.003186,6.870929 2.003186,10.590178 z M 14.142407,-33.440497 H 50.19976 c -0.153578,-1.956445 -0.727825,-3.819409 -1.722741,-5.582212 -0.988238,-1.769482 -2.296986,-3.331967 -3.926245,-4.687456 -1.62258,-1.362167 -3.492221,-2.430533 -5.608921,-3.205098 -2.110023,-0.774566 -4.340237,-1.161848 -6.690642,-1.161848 -2.744365,0 -5.361862,0.560892 -7.85249,1.682676 -2.493967,1.115107 -4.644054,2.75772 -6.45026,4.927838 -1.809545,2.163442 -3.07823,4.841034 -3.806054,8.0261 z M 74.478377,-6.4116673e-4 H 65.103465 V -55.288582 h 9.000984 V -42.9356 c 1.368844,-3.826086 3.505576,-6.840881 6.410196,-9.041047 2.911297,-2.206844 6.373471,-3.311935 10.389859,-3.311935 h 5.36854 v 8.186355 h -4.887775 c -3.215114,0 -6.103041,0.834661 -8.667119,2.497305 -2.564079,1.655968 -4.580619,4.056452 -6.049623,7.198116 -1.462326,3.145003 -2.19015,6.941041 -2.19015,11.391453 z m 0,0"
           style="fill:#ffb800;fill-opacity:1;fill-rule:nonzero;stroke:none"
           aria-label="      er"
           transform="matrix(1.170011,0,0,1.170011,343.82432,346.8445)"
           clip-path="url(#clipPath6)"
           id="path18" />
      </g>
      <path
         d="M 0,4.5 H 58.38464"
         style="fill:none;stroke:#ffb800;stroke-width:9;stroke-linecap:butt;stroke-linejoin:miter;stroke-miterlimit:10;stroke-dasharray:none;stroke-opacity:1"
         transform="matrix(0,1.1143879,-1.1143879,0,309.30602,282.16487)"
         clip-path="url(#clipPath8)"
         id="path19" />
      <path
         d="M 0,4.5 H 53.617908"
         style="fill:none;stroke:#ffb800;stroke-width:9;stroke-linecap:butt;stroke-linejoin:miter;stroke-miterlimit:10;stroke-dasharray:none;stroke-opacity:1"
         transform="matrix(-0.7476408,0.82637373,-0.82637373,-0.7476408,347.15834,289.07718)"
         clip-path="url(#clipPath9)"
         id="path20" />
      <path
         d="M 0,4.5 H 38.048939"
         style="fill:none;stroke:#ffb800;stroke-width:9;stroke-linecap:butt;stroke-linejoin:miter;stroke-miterlimit:10;stroke-dasharray:none;stroke-opacity:1"
         transform="matrix(-0.69861479,-0.86821523,0.86821523,-0.69861479,342.64752,347.12983)"
         clip-path="url(#clipPath10)"
         id="path21" />
      <g
         clip-path="url(#clipPath12)"
         id="g23">
        <g
           id="g22">
          <path
             d="M 0,0 H 256 V 267 H 0 Z"
             style="fill:#ffb800;fill-opacity:1;fill-rule:nonzero;stroke:none"
             transform="matrix(0.02969546,-0.02969546,0.02969546,0.02969546,338.78967,281.98567)"
             clip-path="url(#clipPath11)"
             id="path22" />
        </g>
      </g>
      <g
         clip-path="url(#clipPath14)"
         id="g25">
        <g
           id="g24">
          <path
             d="M 0,0 H 256 V 267 H 0 Z"
             style="fill:#ffb800;fill-opacity:1;fill-rule:nonzero;stroke:none"
             transform="matrix(-0.02969546,0.02969546,-0.02969546,-0.02969546,357.64049,347.38124)"
             clip-path="url(#clipPath13)"
             id="path23" />
        </g>
      </g>
      <g
         clip-path="url(#clipPath16)"
         id="g26">
        <path
           d="M 72.315556,-6.4116673e-4 H 62.126015 L 55.128218,-16.69386 H 17.882308 L 10.897865,-6.4116673e-4 H 0.70832454 L 31.931321,-73.717895 h 9.214657 z M 36.151367,-60.229775 21.301079,-24.826796 H 51.709447 L 36.859159,-60.229775 36.592068,-61.47175 h -0.106837 z m 0,0"
           style="fill:#ffb800;fill-opacity:1;fill-rule:nonzero;stroke:none"
           aria-label="A"
           transform="matrix(1.170011,0,0,1.170011,57.526721,346.8445)"
           clip-path="url(#clipPath15)"
           id="path25" />
      </g>
    </g>
    <g
       id="g28">
      <path
         id="path28"
         d="m 224.46143,122.62301 h 7.52212 v 48.79735 h -7.52212 z"
         style="fill:#000000;fill-opacity:0;fill-rule:nonzero;stroke:none"
         transform="matrix(1.3333333,0,0,-1.3333333,0,510.71997)" />
    </g>
    <g
       id="g29">
      <path
         id="path29"
         d="m 224.73146,133.00342 h 35.64322 v 38.2779 h -35.64322 z"
         style="fill:#000000;fill-opacity:0;fill-rule:nonzero;stroke:none"
         transform="matrix(1.3333333,0,0,-1.3333333,0,510.71997)" />
    </g>
    <g
       id="g30">
      <path
         id="path30"
         d="m 237.05087,122.69194 h 25.79662 v 29.49165 h -25.79662 z"
         style="fill:#000000;fill-opacity:0;fill-rule:nonzero;stroke:none"
         transform="matrix(1.3333333,0,0,-1.3333333,0,510.71997)" />
    </g>
  </g>
</svg>
